<?xml version="1.0" encoding="utf-8"?>
<!-- Generator: Adobe Illustrator 23.0.0, SVG Export Plug-In . SVG Version: 6.00 Build 0)  -->
<svg xmlns="http://www.w3.org/2000/svg" xmlns:xlink="http://www.w3.org/1999/xlink" version="1.1" id="图层_1" x="0px" y="0px" viewBox="0 0 400 800" style="enable-background:new 0 0 400 800;" xml:space="preserve">
<style type="text/css">
	.st0{fill:#FE5A5A;}
	.st1{fill:#FEA5A5;}
	.st2{fill:#FFFFFF;}
	.st3{fill:#0181FF;}
	.st4{fill:#83C1FF;}
	.st5{fill:#00C2FF;}
	.st6{fill:#98E6FF;}
	.st7{fill:#54AAFF;}
	.st8{fill:#C6E3FF;}
	.st9{fill:#5E6066;}
	.st10{fill:#9B9B9B;}
	.st11{fill:#FFA01E;}
	.st12{fill:#FFCE8A;}
	.st13{fill:#FFFFFF;stroke:#FFFFFF;stroke-width:0.5;}
	.st14{fill:#A075FF;}
	.st15{fill:#CCB5FF;}
	.st16{fill:#FF6795;}
	.st17{fill:#FFBDD1;}
	.st18{fill:#0094FF;}
	.st19{fill:#A9DBFF;}
	.st20{fill:#A6E2FF;}
	.st21{fill:#57CAFF;}
	.st22{fill:#54ABFF;}
	.st23{fill:#42CC8B;}
	.st24{fill:#FFBA40;}
	.st25{fill:#11B0AC;}
	.st26{fill:#6BD3D0;}
	.st27{fill:#18B8B3;}
	.st28{fill:#D2DAE2;}
	.st29{fill:#9AA4AE;}
	.st30{fill:#62676C;}
	.st31{fill:#FF8040;}
	.st32{fill:#FFB38C;}
	.st33{fill:#FF79C4;}
	.st34{fill:#FFBAE1;}
	.st35{fill:#91E4BD;}
	.st36{fill:#BAD734;}
	.st37{fill:#E7F2B5;}
	.st38{fill:#4F3929;}
	.st39{fill:#968172;}
	.st40{fill:#A8ABB3;}
	.st41{fill:#31CD57;}
	.st42{fill:#94E3A7;}
	.st43{fill:#97CF36;}
	.st44{fill:#C9E794;}
	.st45{fill:none;stroke:#FFFFFF;stroke-width:0.75;stroke-linecap:round;stroke-linejoin:round;}
</style>
<title>fileIcon5_6</title>
<desc>Created with Sketch.</desc>
<g id="_x32_-pdf" transform="translate(2.000000, 2.000000)">
	<g id="编组" transform="translate(4.500000, 3.000000)">
		<path id="形状结合" class="st0" d="M1.5,30h18l7.5-7.5v-21C27,0.7,26.3,0,25.5,0h-24C0.7,0,0,0.7,0,1.5v27    C0,29.3,0.7,30,1.5,30z"/>
		<path id="矩形" class="st1" d="M19.5,30l7.5-7.5h-6c-0.8,0-1.5,0.7-1.5,1.5V30z"/>
		<path id="路径-2" class="st2" d="M11.4,16.3c0.2-1.9,0.2-3.6,0.1-5.2c2.1,1.4,4.5,2.3,7.1,2.7c0.6,0.1,1.2-0.3,1.3-1    c0.1-0.6-0.3-1.2-1-1.3c-3.3-0.5-6-1.9-8.4-4.2c-0.8-0.8-2.2,0-1.9,1.2c0.9,2.8,0.9,6.3,0,10.7c-0.3,1.2,1.3,1.9,2,0.9    c1.3-1.8,3.1-2.9,5.3-3.3c0.6-0.1,1-0.7,0.9-1.3s-0.7-1-1.3-0.9C14,15,12.6,15.5,11.4,16.3z"/>
	</g>
</g>
<g id="_x32_-word" transform="translate(2.000000, 42.000000)">
	<g id="编组_1_" transform="translate(4.500000, 3.000000)">
		<path id="形状结合_1_" class="st3" d="M1.5,30h18l7.5-7.5v-21C27,0.7,26.3,0,25.5,0h-24C0.7,0,0,0.7,0,1.5v27    C0,29.3,0.7,30,1.5,30z"/>
		<path id="矩形_1_" class="st4" d="M19.5,30l7.5-7.5h-6c-0.8,0-1.5,0.7-1.5,1.5V30z"/>
		<path id="形状" class="st2" d="M15.8,16l2.7-6c0.3-0.6,0.9-0.8,1.5-0.6s0.8,0.9,0.6,1.5l-3.8,8.3c-0.4,0.9-1.6,0.9-2,0L11,11    c-0.3-0.6,0-1.2,0.6-1.5s1.2,0,1.5,0.6L15.8,16z M12.3,18.3c0.3,0.6,0,1.2-0.6,1.5s-1.2,0-1.5-0.6L6.5,11c-0.3-0.6,0-1.2,0.6-1.5    s1.2,0,1.5,0.6L12.3,18.3z"/>
	</g>
</g>
<g id="_x32_-keynotes" transform="translate(2.000000, 82.000000)">
	<g id="编组_2_" transform="translate(4.500000, 3.000000)">
		<path id="形状结合_2_" class="st5" d="M1.5,30h18l7.5-7.5v-21C27,0.7,26.3,0,25.5,0h-24C0.7,0,0,0.7,0,1.5v27    C0,29.3,0.7,30,1.5,30z"/>
		<path id="矩形_2_" class="st6" d="M19.5,30l7.5-7.5h-6c-0.8,0-1.5,0.7-1.5,1.5V30z"/>
		<path id="形状结合_3_" class="st2" d="M15.6,18.5c0.7,0,1.2,0.6,1.2,1.3c0,0.7-0.5,1.3-1.2,1.3h-4.1c-0.7,0-1.2-0.6-1.2-1.3    c0-0.7,0.5-1.3,1.2-1.3h1V15H8c-0.8,0-1.4-0.9-1.1-1.8l1.5-4.4c0.1-0.6,0.6-1,1.1-1h7.9c0.6,0,1,0.4,1.1,1l1.5,4.5    c0.3,0.8-0.3,1.8-1.1,1.8h-2.1c-0.7,0-1.2-0.6-1.2-1.3s0.5-1.3,1.2-1.3h0.4l-0.6-2.1h-6.3l-0.9,2.1h4c0.7,0,1.2,0.6,1.2,1.3v4.8h1    V18.5z"/>
	</g>
	<path id="路径-7" class="st2" d="M0,0"/>
</g>
<g id="_x32_-文本" transform="translate(2.000000, 242.000000)">
	<g id="编组_3_" transform="translate(4.500000, 3.000000)">
		<path id="形状结合_4_" class="st7" d="M1.5,30h18l7.5-7.5v-21C27,0.7,26.3,0,25.5,0h-24C0.7,0,0,0.7,0,1.5v27    C0,29.3,0.7,30,1.5,30z"/>
		<path id="矩形_3_" class="st8" d="M19.5,30l7.5-7.5h-6c-0.8,0-1.5,0.7-1.5,1.5V30z"/>
		<path id="形状结合_5_" class="st2" d="M7.1,12.4c-0.6,0-1.1-0.5-1.1-1.1s0.5-1.1,1.1-1.1h12.8c0.6,0,1.1,0.5,1.1,1.1    s-0.5,1.1-1.1,1.1H7.1z M7.1,18.8c-0.6,0-1.1-0.5-1.1-1.1s0.5-1.1,1.1-1.1h7.1c0.6,0,1.1,0.5,1.1,1.1s-0.5,1.1-1.1,1.1H7.1z"/>
	</g>
</g>
<g id="_x32_-html" transform="translate(2.000000, 282.000000)">
	<g id="编组_4_" transform="translate(4.500000, 3.000000)">
		<path id="形状结合_6_" class="st9" d="M1.5,30h18l7.5-7.5v-21C27,0.7,26.3,0,25.5,0h-24C0.7,0,0,0.7,0,1.5v27    C0,29.3,0.7,30,1.5,30z"/>
		<path id="矩形_4_" class="st10" d="M19.5,30l7.5-7.5h-6c-0.8,0-1.5,0.7-1.5,1.5V30z"/>
	</g>
	<g id="编组-2" transform="translate(10.500000, 13.500000)">
		<path id="形状结合_7_" class="st2" d="M7.1,0.9c0.1-0.6,0.7-1,1.3-0.9s1,0.7,0.9,1.3L8.1,8.2C8,8.8,7.4,9.3,6.8,9.1    C6.2,9,5.7,8.4,5.9,7.8L7.1,0.9z M12.2,4.8l-2.1-2.1c-0.4-0.4-0.4-1.2,0-1.6s1.2-0.4,1.6,0L14.6,4c0.4,0.4,0.4,1.2,0,1.6l-2.9,2.9    c-0.4,0.4-1.2,0.4-1.6,0s-0.4-1.2,0-1.6L12.2,4.8z M2.8,4.8l2.1,2.1c0.4,0.4,0.4,1.2,0,1.6s-1.2,0.4-1.6,0l-3-2.9    c-0.4-0.4-0.4-1.2,0-1.6l3-3c0.4-0.4,1.2-0.4,1.6,0s0.4,1.2,0,1.6L2.8,4.8z"/>
	</g>
</g>
<g id="_x32_-image" transform="translate(2.000000, 322.000000)">
	<g id="编组_5_" transform="translate(4.500000, 3.000000)">
		<path id="形状结合_8_" class="st7" d="M1.5,30h18l7.5-7.5v-21C27,0.7,26.3,0,25.5,0h-24C0.7,0,0,0.7,0,1.5v27    C0,29.3,0.7,30,1.5,30z"/>
		<path id="矩形_5_" class="st8" d="M19.5,30l7.5-7.5h-6c-0.8,0-1.5,0.7-1.5,1.5V30z"/>
	</g>
	<path id="形状结合_9_" class="st2" d="M22,15c-0.8,0-1.5-0.7-1.5-1.5S21.2,12,22,12s1.5,0.7,1.5,1.5S22.9,15,22,15z M23.4,22.4   l-7.5-4.1l-3.1,3.8c-0.4,0.5-1.1,0.5-1.6,0.2c-0.5-0.4-0.5-1.1-0.2-1.6l3.7-4.5c0.3-0.4,0.9-0.5,1.4-0.3l8.3,4.5   c0.5,0.3,0.7,1,0.5,1.5C24.6,22.5,23.9,22.7,23.4,22.4z"/>
</g>
<g id="_x32_-ai" transform="translate(2.000000, 362.000000)">
	<g id="编组_6_" transform="translate(4.500000, 3.000000)">
		<path id="形状结合_10_" class="st11" d="M1.5,30h18l7.5-7.5v-21C27,0.7,26.3,0,25.5,0h-24C0.7,0,0,0.7,0,1.5v27    C0,29.3,0.7,30,1.5,30z"/>
		<path id="矩形_6_" class="st12" d="M19.5,30l7.5-7.5h-6c-0.8,0-1.5,0.7-1.5,1.5V30z"/>
	</g>
	<path id="形状结合_11_" class="st2" d="M22.5,21.1v-6.5c0-0.6,0.5-1.1,1.1-1.1s1.1,0.5,1.1,1.1v6.5v1c0,0.6-0.5,1.1-1.1,1.1   s-1.1-0.5-1.1-1.1V21.1z M14.8,18.7h2l-0.9-3.1L14.8,18.7z M17.4,21H14l-0.5,1.4c-0.2,0.6-0.9,0.9-1.5,0.8c-0.6-0.2-1-0.8-0.8-1.4   l3.4-10.5c0.3-1.1,2-1.1,2.3,0l3.2,10.5c0.2,0.6-0.2,1.2-0.8,1.4S18,23,17.8,22.4L17.4,21z M23.6,12.8c-0.6,0-1.1-0.5-1.1-1.1   s0.5-1.1,1.1-1.1s1.1,0.5,1.1,1.1S24.2,12.8,23.6,12.8z"/>
</g>
<g id="_x32_-相机照片" transform="translate(2.000000, 402.000000)">
	<g id="编组_7_" transform="translate(4.500000, 3.000000)">
		<path id="形状结合_12_" class="st9" d="M1.5,30h18l7.5-7.5v-21C27,0.7,26.3,0,25.5,0h-24C0.7,0,0,0.7,0,1.5v27    C0,29.3,0.7,30,1.5,30z"/>
		<path id="矩形_7_" class="st10" d="M19.5,30l7.5-7.5h-6c-0.8,0-1.5,0.7-1.5,1.5V30z"/>
	</g>
	
		<g id="编组-2_1_" transform="translate(18.000000, 17.250000) rotate(-180.000000) translate(-18.000000, -17.250000) translate(11.250000, 10.500000)">
		<path id="形状结合_13_" class="st13" d="M3.5,0H10c2,0,3.5,1.6,3.5,3.5V10c0,2-1.6,3.5-3.5,3.5H3.5c-2,0-3.5-1.6-3.5-3.5V3.5    C0,1.6,1.6,0,3.5,0z M3.5,1.9c-0.9,0-1.6,0.7-1.6,1.6V10c0,0.9,0.7,1.6,1.6,1.6H10c0.9,0,1.6-0.7,1.6-1.6V3.5    c0-0.9-0.7-1.6-1.6-1.6H3.5z M6.8,3.5C8.5,3.5,10,5,10,6.8S8.5,10,6.8,10S3.5,8.5,3.5,6.8S5,3.5,6.8,3.5z M6.8,5.5    C6,5.5,5.5,6,5.5,6.8S6,8,6.8,8S8,7.5,8,6.8S7.5,5.5,6.8,5.5z"/>
		<circle id="椭圆形" class="st2" cx="3.5" cy="10.1" r="1"/>
	</g>
</g>
<g id="_x32_-视频" transform="translate(2.000000, 442.000000)">
	<g id="编组_8_" transform="translate(4.500000, 3.000000)">
		<path id="形状结合_14_" class="st14" d="M1.5,30h18l7.5-7.5v-21C27,0.7,26.3,0,25.5,0h-24C0.7,0,0,0.7,0,1.5v27    C0,29.3,0.7,30,1.5,30z"/>
		<path id="矩形_8_" class="st15" d="M19.5,30l7.5-7.5h-6c-0.8,0-1.5,0.7-1.5,1.5V30z"/>
	</g>
	
		<g id="编组-2_2_" transform="translate(18.000000, 17.250000) rotate(-90.000000) translate(-18.000000, -17.250000) translate(9.750000, 9.000000)">
		<path id="形状结合_15_" class="st2" d="M8.3,15.1c-3.8,0-6.8-3-6.8-6.8s3-6.8,6.8-6.8s6.8,3,6.8,6.8c0,1-0.2,1.9-0.6,2.8    c-0.3,0.7-0.8,1.4-1.3,2c-0.4,0.4-1.1,0.5-1.6,0c-0.4-0.4-0.5-1.1,0-1.6c0.4-0.4,0.7-0.8,0.9-1.3c0.3-0.6,0.4-1.2,0.4-1.8    c0-2.5-2-4.6-4.6-4.6s-4.6,2-4.6,4.6s2,4.6,4.6,4.6c0.6,0,1.1,0.5,1.1,1.1S8.9,15.1,8.3,15.1z M7.7,10L6.6,7.9    c-0.2-0.4,0-0.8,0.4-1c0.1-0.1,0.2-0.1,0.4-0.1h1.8c0.4,0,0.8,0.4,0.8,0.8c0,0.1,0,0.2-0.1,0.4l-1.1,2c-0.2,0.3-0.6,0.5-0.9,0.3    C7.8,10.3,7.7,10.2,7.7,10z"/>
	</g>
</g>
<g id="_x32_-音乐" transform="translate(2.000000, 482.000000)">
	<g id="编组_9_" transform="translate(4.500000, 3.000000)">
		<path id="形状结合_16_" class="st16" d="M1.5,30h18l7.5-7.5v-21C27,0.7,26.3,0,25.5,0h-24C0.7,0,0,0.7,0,1.5v27    C0,29.3,0.7,30,1.5,30z"/>
		<path id="矩形_9_" class="st17" d="M19.5,30l7.5-7.5h-6c-0.8,0-1.5,0.7-1.5,1.5V30z"/>
	</g>
	<g id="编组-3" transform="translate(12.000000, 9.750000)">
		<path id="椭圆形_1_" class="st2" d="M9.7,10.2c0-2.7-2.2-4.9-4.9-4.9S0,7.5,0,10.2s2.2,4.9,4.9,4.9c0.8,0,1.6-0.2,2.2-0.5    s0.8-1,0.5-1.5c-0.3-0.6-1-0.8-1.5-0.5c-0.4,0.2-0.8,0.3-1.2,0.3c-1.4,0-2.6-1.2-2.6-2.6s1.2-2.6,2.6-2.6s2.6,1.2,2.6,2.6    c0,0.6,0.5,1.1,1.1,1.1C9.2,11.3,9.7,10.8,9.7,10.2z"/>
		<path id="直线-7" class="st2" d="M9.7,9.1L7.5,0.8C7.3,0.2,6.7-0.1,6.1,0s-1,0.8-0.8,1.4l2.3,8.3c0.2,0.6,0.8,1,1.4,0.8    C9.5,10.4,9.9,9.7,9.7,9.1z"/>
		<path id="直线-8" class="st2" d="M6,2.2l4.5,1.6c0.6,0.2,1.2-0.1,1.4-0.7s-0.1-1.2-0.7-1.4L6.7,0.1C6.2-0.1,5.5,0.2,5.3,0.8    S5.4,2,6,2.2z"/>
	</g>
</g>
<g id="_x32_-邮件" transform="translate(2.000000, 562.000000)">
	<g id="编组_10_" transform="translate(4.500000, 3.000000)">
		<path id="形状结合_17_" class="st18" d="M1.5,30h18l7.5-7.5v-21C27,0.7,26.3,0,25.5,0h-24C0.7,0,0,0.7,0,1.5v27    C0,29.3,0.7,30,1.5,30z"/>
		<path id="矩形_10_" class="st19" d="M19.5,30l7.5-7.5h-6c-0.8,0-1.5,0.7-1.5,1.5V30z"/>
	</g>
	<path id="形状结合_18_" class="st13" d="M23.5,14.5l-5,3.1c-0.3,0.2-0.7,0.2-1,0l-5-3.1v5.6c0,0.2,0.1,0.3,0.3,0.3h9.1   c0.5,0,1,0.4,1,1c0,0.5-0.4,1-1,1h-9.1c-1.3,0-2.3-1-2.3-2.3v-6.5c0-1.3,1-2.3,2.3-2.3h10.4c1.3,0,2.3,1,2.3,2.3v5.2   c0,0.5-0.4,1-1,1c-0.5,0-1-0.4-1-1V14.5z M21.9,13.2h-7.8l3.9,2.4L21.9,13.2z"/>
</g>
<g id="_x32_-文件夹" transform="translate(2.000000, 642.000000)">
	<g id="编组_11_" transform="translate(3.000000, 3.000000)">
		<path id="路径" class="st20" d="M0,27V1.5C0,0.7,0.7,0,1.5,0h9.9c0.4,0,0.8,0.2,1.1,0.4l2.1,2.1c0.2,0.3,0.6,0.5,1,0.5h12.9    C29.3,3,30,3.7,30,4.5V27c0,0.8-0.7,1.5-1.5,1.5h-27C0.7,28.5,0,27.8,0,27z"/>
		<path id="矩形_11_" class="st21" d="M1.5,6h27C29.3,6,30,6.7,30,7.5V27c0,0.8-0.7,1.5-1.5,1.5h-27C0.7,28.5,0,27.8,0,27V7.5    C0,6.7,0.7,6,1.5,6z"/>
	</g>
</g>
<g id="_x32_-1" transform="translate(2.000000, 603.000000)">
	<g id="编组_12_" transform="translate(3.000000, 3.000000)">
		<path id="矩形_12_" class="st21" d="M3,0h24c1.7,0,3,1.3,3,3v24c0,1.7-1.3,3-3,3H3c-1.7,0-3-1.3-3-3V3C0,1.3,1.3,0,3,0z"/>
	</g>
	<g id="编组-3_1_" transform="translate(7.500000, 9.000000)">
		<path id="形状结合_19_" class="st2" d="M13.3,9.7c-1.8,0-3.3-1.5-3.3-3.3S11.4,3,13.3,3s3.3,1.5,3.3,3.3S15.1,9.7,13.3,9.7z     M10,11h6.5c1.1,0,2,0.9,2,2v0.5c0,0.8-0.7,1.5-1.5,1.5H9.5C8.7,15,8,14.3,8,13.5V13C8,11.9,8.9,11,10,11z"/>
		<g id="编组-2_3_">
			<path id="形状_1_" class="st21" d="M5.7,11H5.5c-1.1,0-2,0.9-2,2v0.5C3.5,14.3,4.2,15,5,15h7.5c0.8,0,1.5-0.7,1.5-1.5V13     c0-1.1-0.9-2-2-2h-0.2c-0.9,0.6-1.9,0.9-3,0.9S6.6,11.6,5.7,11z M3.2,6.3c0-3.1,2.5-5.6,5.5-5.6s5.5,2.5,5.5,5.6     c0,1-0.3,1.9-0.7,2.7c1.6,0.6,2.7,2.2,2.7,3.9v0.5c0,2.1-1.7,3.8-3.8,3.8H5c-2.1,0-3.8-1.7-3.8-3.8V13c0-1.8,1.1-3.3,2.7-3.9     C3.5,8.2,3.2,7.3,3.2,6.3z M11,8.8c0.6-0.6,1-1.5,1-2.4C12,4.5,10.6,3,8.8,3S5.5,4.5,5.5,6.3c0,1,0.4,1.8,1,2.4L11,8.8L11,8.8z"/>
		</g>
		<path id="形状结合_20_" class="st2" d="M8.8,9.7C7,9.7,5.5,8.2,5.5,6.4S6.9,3,8.8,3S12,4.5,12,6.3S10.6,9.7,8.8,9.7z M5.5,11    H12c1.1,0,2,0.9,2,2v0.5c0,0.8-0.7,1.5-1.5,1.5H5c-0.8,0-1.5-0.7-1.5-1.5V13C3.5,11.9,4.4,11,5.5,11z"/>
	</g>
</g>
<g id="_x32_-zip" transform="translate(2.000000, 522.000000)">
	<g id="编组_13_" transform="translate(4.500000, 3.000000)">
		<path id="形状结合_21_" class="st22" d="M1.5,0h24C26.3,0,27,0.7,27,1.5v27c0,0.8-0.7,1.5-1.5,1.5h-24C0.7,30,0,29.3,0,28.5    v-27C0,0.7,0.7,0,1.5,0z"/>
		<path id="形状结合_22_" class="st2" d="M9,0h4.5v3H9V0z M9,6h4.5v3H9V6z M9,12h4.5v3H9V12z M13.5,3H18v3h-4.5V3z M13.5,9H18v3    h-4.5V9z"/>
		<path id="形状结合_23_" class="st23" d="M0,15h13.5v15h-12C0.7,30,0,29.3,0,28.5V15z"/>
		<path id="形状结合备份" class="st0" d="M27,15H13.5v15h12c0.8,0,1.5-0.7,1.5-1.5V15z"/>
		<rect id="矩形_13_" y="15" class="st24" width="27" height="6"/>
		<path id="矩形_14_" class="st2" d="M9.8,13.5h7.5c1.2,0,2.3,1,2.3,2.3v4.5c0,1.2-1,2.3-2.3,2.3H9.8c-1.2,0-2.3-1-2.3-2.3v-4.5    C7.5,14.5,8.5,13.5,9.8,13.5z M10.5,16.5v3h6v-3H10.5z"/>
	</g>
</g>
<g id="_x32_-ps" transform="translate(2.000000, 122.000000)">
	<g id="编组_14_" transform="translate(4.500000, 3.000000)">
		<path id="形状结合_24_" class="st5" d="M1.5,30h18l7.5-7.5v-21C27,0.7,26.3,0,25.5,0h-24C0.7,0,0,0.7,0,1.5v27    C0,29.3,0.7,30,1.5,30z"/>
		<path id="矩形_15_" class="st6" d="M19.5,30l7.5-7.5h-6c-0.8,0-1.5,0.7-1.5,1.5V30z"/>
	</g>
	<path id="形状结合_25_" class="st13" d="M10.8,11.5c0.2-0.2,0.4-0.3,0.7-0.3h2.2c2.4,0,4.4,2,4.4,4.4s-2,4.4-4.4,4.4h-0.1h-0.1   h-1v2.4c0,0.6-0.5,1-1,1s-1-0.5-1-1V19v-6.8C10.5,12,10.6,11.7,10.8,11.5z M12.5,13.3v4.8h1h0.1h0.1c1.3,0,2.4-1.1,2.4-2.4   s-1.1-2.4-2.4-2.4L12.5,13.3z M21.8,17.4c1.7,0,3.1,1.4,3.1,3.1s-1.4,3.1-3.1,3.1s-3.1-1.4-3.1-3.1c0-0.6,0.5-1,1-1s1,0.5,1,1   s0.5,1,1,1s1-0.5,1-1s-0.5-1-1-1c-1.7,0-3.1-1.4-3.1-3.1s1.4-3.1,3.1-3.1s3.1,1.4,3.1,3.1c0,0.6-0.5,1-1,1s-1-0.5-1-1s-0.5-1-1-1   s-1,0.5-1,1S21.2,17.4,21.8,17.4z"/>
</g>
<g id="_x32_-cad" transform="translate(2.000000, 162.000000)">
	<g id="编组_15_" transform="translate(4.500000, 3.000000)">
		<path id="形状结合_26_" class="st25" d="M1.5,30h18l7.5-7.5v-21C27,0.7,26.3,0,25.5,0h-24C0.7,0,0,0.7,0,1.5v27    C0,29.3,0.7,30,1.5,30z"/>
		<path id="矩形_16_" class="st26" d="M19.5,30l7.5-7.5h-6c-0.8,0-1.5,0.7-1.5,1.5V30z"/>
	</g>
	
		<g id="编组-2_4_" transform="translate(17.250000, 18.000000) scale(-1, 1) rotate(-180.000000) translate(-17.250000, -18.000000) translate(9.000000, 10.500000)">
		<g id="编组-4" transform="translate(0.951923, 0.988636)">
			<g id="编组-3_2_" transform="translate(0.000000, 0.000000)">
				<path id="直线-6" class="st2" d="M5.6,1v11.2c0,0.6,0.5,1,1,1s1-0.5,1-1V1c0-0.6-0.5-1-1-1S5.6,0.5,5.6,1z"/>
				<path id="直线" class="st2" d="M1,9h12.6c0.6,0,1-0.5,1-1s-0.5-1-1-1H1C0.4,7,0,7.5,0,8S0.5,9,1,9z"/>
				<path id="矩形_17_" class="st2" d="M3.6,6.9c0-1.1,0.9-2,2-2h2c1.1,0,2,0.9,2,2v2c0,1.1-0.9,2-2,2h-2c-1.1,0-2-0.9-2-2      L3.6,6.9z M5.6,6.9v2h2v-2L5.6,6.9z"/>
			</g>
			<polygon id="矩形_18_" class="st27" points="5.6,9 7.6,9 7.6,9    "/>
		</g>
	</g>
</g>
<g id="_x32_-Maya" transform="translate(2.000000, 202.000000)">
	<g id="编组_16_" transform="translate(4.500000, 3.000000)">
		<path id="形状结合_27_" class="st9" d="M1.5,30h18l7.5-7.5v-21C27,0.7,26.3,0,25.5,0h-24C0.7,0,0,0.7,0,1.5v27    C0,29.3,0.7,30,1.5,30z"/>
		<path id="矩形_19_" class="st10" d="M19.5,30l7.5-7.5h-6c-0.8,0-1.5,0.7-1.5,1.5V30z"/>
	</g>
	<g id="编组-2_5_" transform="translate(10.500000, 10.500000)">
		<path id="路径-6" class="st13" d="M9.7,14.3C9,15,7.8,14.6,7.8,13.6V5.5c0-0.3,0.2-0.7,0.4-0.8l4.1-2.8C13.1,1.4,14.1,2,14,2.8    l-0.7,6.8c0,0.2-0.1,0.4-0.2,0.6L9.7,14.3z M9.9,10.8l1.4-1.7l0.4-4.3L9.9,6V10.8z"/>
		<path id="路径-12" class="st13" d="M9.1,5L2.3,3.1C1.6,2.9,1,3.5,1,4.2l0.6,7.4c0,0.4,0.3,0.8,0.7,0.9l6.2,2.1    c0.7,0.2,1.4-0.3,1.4-1V6C9.9,5.5,9.6,5.1,9.1,5z M7.8,6.8v5.4l-4.2-1.5L3.2,5.5L7.8,6.8z"/>
		<path id="路径-13" class="st13" d="M9.5,6.8l4.1-3.3C14.3,3,14,1.9,13.2,1.7L7.1,0.4c-0.2-0.1-0.5,0-0.7,0.1L1.5,3.2    C0.7,3.6,0.9,4.8,1.8,5.1L8.6,7C8.9,7.1,9.2,7,9.5,6.8z M4.7,3.8L7,2.4l3.6,0.8l-2,1.6L4.7,3.8z"/>
	</g>
</g>
<g id="_x32_-word_1_" transform="translate(122.000000, 82.000000)">
	<g id="编组_17_" transform="translate(4.500000, 3.000000)">
		<path id="形状结合_28_" class="st3" d="M1.5,30h18l7.5-7.5v-21C27,0.7,26.3,0,25.5,0h-24C0.7,0,0,0.7,0,1.5v27    C0,29.3,0.7,30,1.5,30z"/>
		<path id="矩形_20_" class="st4" d="M19.5,30l7.5-7.5h-6c-0.8,0-1.5,0.7-1.5,1.5V30z"/>
		<path id="形状_2_" class="st2" d="M15.8,16l2.7-6c0.3-0.6,0.9-0.8,1.5-0.6s0.8,0.9,0.6,1.5l-3.8,8.3c-0.4,0.9-1.6,0.9-2,0L11,11    c-0.3-0.6,0-1.2,0.6-1.5s1.2,0,1.5,0.6L15.8,16z M12.3,18.3c0.3,0.6,0,1.2-0.6,1.5s-1.2,0-1.5-0.6L6.5,11c-0.3-0.6,0-1.2,0.6-1.5    s1.2,0,1.5,0.6L12.3,18.3z"/>
	</g>
</g>
<g id="_x32_-文本_1_" transform="translate(122.000000, 242.000000)">
	<g id="编组_18_" transform="translate(4.500000, 3.000000)">
		<path id="形状结合_29_" class="st7" d="M1.5,30h18l7.5-7.5v-21C27,0.7,26.3,0,25.5,0h-24C0.7,0,0,0.7,0,1.5v27    C0,29.3,0.7,30,1.5,30z"/>
		<path id="矩形_21_" class="st8" d="M19.5,30l7.5-7.5h-6c-0.8,0-1.5,0.7-1.5,1.5V30z"/>
		<path id="形状结合_30_" class="st2" d="M7.1,12.4c-0.6,0-1.1-0.5-1.1-1.1s0.5-1.1,1.1-1.1h12.8c0.6,0,1.1,0.5,1.1,1.1    s-0.5,1.1-1.1,1.1H7.1z M7.1,18.8c-0.6,0-1.1-0.5-1.1-1.1s0.5-1.1,1.1-1.1h7.1c0.6,0,1.1,0.5,1.1,1.1s-0.5,1.1-1.1,1.1H7.1z"/>
	</g>
</g>
<g id="_x32_-html_1_" transform="translate(122.000000, 282.000000)">
	<g id="编组_19_" transform="translate(4.500000, 3.000000)">
		<path id="形状结合_31_" class="st9" d="M1.5,30h18l7.5-7.5v-21C27,0.7,26.3,0,25.5,0h-24C0.7,0,0,0.7,0,1.5v27    C0,29.3,0.7,30,1.5,30z"/>
		<path id="矩形_22_" class="st10" d="M19.5,30l7.5-7.5h-6c-0.8,0-1.5,0.7-1.5,1.5V30z"/>
	</g>
	<g id="编组-2_6_" transform="translate(10.500000, 13.500000)">
		<path id="形状结合_32_" class="st2" d="M7.1,0.9c0.1-0.6,0.7-1,1.3-0.9s1,0.7,0.9,1.3L8.1,8.2C8,8.8,7.4,9.3,6.8,9.1    C6.2,9,5.7,8.4,5.9,7.8L7.1,0.9z M12.2,4.8l-2.1-2.1c-0.4-0.4-0.4-1.2,0-1.6s1.2-0.4,1.6,0L14.6,4c0.4,0.4,0.4,1.2,0,1.6l-2.9,2.9    c-0.4,0.4-1.2,0.4-1.6,0s-0.4-1.2,0-1.6L12.2,4.8z M2.8,4.8l2.1,2.1c0.4,0.4,0.4,1.2,0,1.6s-1.2,0.4-1.6,0l-3-2.9    c-0.4-0.4-0.4-1.2,0-1.6l3-3c0.4-0.4,1.2-0.4,1.6,0s0.4,1.2,0,1.6L2.8,4.8z"/>
	</g>
</g>
<g id="_x32_-image_1_" transform="translate(122.000000, 322.000000)">
	<g id="编组_20_" transform="translate(4.500000, 3.000000)">
		<path id="形状结合_33_" class="st7" d="M1.5,30h18l7.5-7.5v-21C27,0.7,26.3,0,25.5,0h-24C0.7,0,0,0.7,0,1.5v27    C0,29.3,0.7,30,1.5,30z"/>
		<path id="矩形_23_" class="st8" d="M19.5,30l7.5-7.5h-6c-0.8,0-1.5,0.7-1.5,1.5V30z"/>
	</g>
	<path id="形状结合_34_" class="st2" d="M22,15c-0.8,0-1.5-0.7-1.5-1.5S21.2,12,22,12s1.5,0.7,1.5,1.5S22.9,15,22,15z    M23.4,22.4l-7.5-4.1l-3.1,3.8c-0.4,0.5-1.1,0.5-1.6,0.2c-0.5-0.4-0.5-1.1-0.2-1.6l3.7-4.5c0.3-0.4,0.9-0.5,1.4-0.3l8.3,4.5   c0.5,0.3,0.7,1,0.5,1.5C24.6,22.5,23.9,22.7,23.4,22.4z"/>
</g>
<g id="_x32_-ai_1_" transform="translate(122.000000, 362.000000)">
	<g id="编组_21_" transform="translate(4.500000, 3.000000)">
		<path id="形状结合_35_" class="st11" d="M1.5,30h18l7.5-7.5v-21C27,0.7,26.3,0,25.5,0h-24C0.7,0,0,0.7,0,1.5v27    C0,29.3,0.7,30,1.5,30z"/>
		<path id="矩形_24_" class="st12" d="M19.5,30l7.5-7.5h-6c-0.8,0-1.5,0.7-1.5,1.5V30z"/>
	</g>
	<path id="形状结合_36_" class="st2" d="M22.5,21.1v-6.5c0-0.6,0.5-1.1,1.1-1.1s1.1,0.5,1.1,1.1v6.5v1c0,0.6-0.5,1.1-1.1,1.1   s-1.1-0.5-1.1-1.1V21.1z M14.8,18.7h2l-0.9-3.1L14.8,18.7z M17.4,21H14l-0.5,1.4c-0.2,0.6-0.9,0.9-1.5,0.8c-0.6-0.2-1-0.8-0.8-1.4   l3.4-10.5c0.3-1.1,2-1.1,2.3,0l3.2,10.5c0.2,0.6-0.2,1.2-0.8,1.4S18,23,17.8,22.4L17.4,21z M23.6,12.8c-0.6,0-1.1-0.5-1.1-1.1   s0.5-1.1,1.1-1.1s1.1,0.5,1.1,1.1S24.2,12.8,23.6,12.8z"/>
</g>
<g id="_x32_-相机照片_1_" transform="translate(122.000000, 402.000000)">
	<g id="编组_22_" transform="translate(4.500000, 3.000000)">
		<path id="形状结合_37_" class="st9" d="M1.5,30h18l7.5-7.5v-21C27,0.7,26.3,0,25.5,0h-24C0.7,0,0,0.7,0,1.5v27    C0,29.3,0.7,30,1.5,30z"/>
		<path id="矩形_25_" class="st10" d="M19.5,30l7.5-7.5h-6c-0.8,0-1.5,0.7-1.5,1.5V30z"/>
	</g>
	
		<g id="编组-2_7_" transform="translate(18.000000, 17.250000) rotate(-180.000000) translate(-18.000000, -17.250000) translate(11.250000, 10.500000)">
		<path id="形状结合_38_" class="st13" d="M3.5,0H10c2,0,3.5,1.6,3.5,3.5V10c0,2-1.6,3.5-3.5,3.5H3.5c-2,0-3.5-1.6-3.5-3.5V3.5    C0,1.6,1.6,0,3.5,0z M3.5,1.9c-0.9,0-1.6,0.7-1.6,1.6V10c0,0.9,0.7,1.6,1.6,1.6H10c0.9,0,1.6-0.7,1.6-1.6V3.5    c0-0.9-0.7-1.6-1.6-1.6H3.5z M6.8,3.5C8.5,3.5,10,5,10,6.8S8.5,10,6.8,10S3.5,8.5,3.5,6.8S5,3.5,6.8,3.5z M6.8,5.5    C6,5.5,5.5,6,5.5,6.8S6,8,6.8,8S8,7.5,8,6.8S7.5,5.5,6.8,5.5z"/>
		<circle id="椭圆形_2_" class="st2" cx="3.5" cy="10.1" r="1"/>
	</g>
</g>
<g id="_x32_-视频_1_" transform="translate(122.000000, 442.000000)">
	<g id="编组_23_" transform="translate(4.500000, 3.000000)">
		<path id="形状结合_39_" class="st14" d="M1.5,30h18l7.5-7.5v-21C27,0.7,26.3,0,25.5,0h-24C0.7,0,0,0.7,0,1.5v27    C0,29.3,0.7,30,1.5,30z"/>
		<path id="矩形_26_" class="st15" d="M19.5,30l7.5-7.5h-6c-0.8,0-1.5,0.7-1.5,1.5V30z"/>
	</g>
	
		<g id="编组-2_8_" transform="translate(18.000000, 17.250000) rotate(-90.000000) translate(-18.000000, -17.250000) translate(9.750000, 9.000000)">
		<path id="形状结合_40_" class="st2" d="M8.3,15.1c-3.8,0-6.8-3-6.8-6.8s3-6.8,6.8-6.8s6.8,3,6.8,6.8c0,1-0.2,1.9-0.6,2.8    c-0.3,0.7-0.8,1.4-1.3,2c-0.4,0.4-1.1,0.5-1.6,0c-0.4-0.4-0.5-1.1,0-1.6c0.4-0.4,0.7-0.8,0.9-1.3c0.3-0.6,0.4-1.2,0.4-1.8    c0-2.5-2-4.6-4.6-4.6s-4.6,2-4.6,4.6s2,4.6,4.6,4.6c0.6,0,1.1,0.5,1.1,1.1S8.9,15.1,8.3,15.1z M7.7,10L6.6,7.9    c-0.2-0.4,0-0.8,0.4-1c0.1-0.1,0.2-0.1,0.4-0.1h1.8c0.4,0,0.8,0.4,0.8,0.8c0,0.1,0,0.2-0.1,0.4l-1.1,2c-0.2,0.3-0.6,0.5-0.9,0.3    C7.8,10.3,7.7,10.2,7.7,10z"/>
	</g>
</g>
<g id="_x32_-音乐_1_" transform="translate(122.000000, 482.000000)">
	<g id="编组_24_" transform="translate(4.500000, 3.000000)">
		<path id="形状结合_41_" class="st16" d="M1.5,30h18l7.5-7.5v-21C27,0.7,26.3,0,25.5,0h-24C0.7,0,0,0.7,0,1.5v27    C0,29.3,0.7,30,1.5,30z"/>
		<path id="矩形_27_" class="st17" d="M19.5,30l7.5-7.5h-6c-0.8,0-1.5,0.7-1.5,1.5V30z"/>
	</g>
	<g id="编组-3_3_" transform="translate(12.000000, 9.750000)">
		<path id="椭圆形_3_" class="st2" d="M9.7,10.2c0-2.7-2.2-4.9-4.9-4.9S0,7.5,0,10.2s2.2,4.9,4.9,4.9c0.8,0,1.6-0.2,2.2-0.5    s0.8-1,0.5-1.5c-0.3-0.6-1-0.8-1.5-0.5c-0.4,0.2-0.8,0.3-1.2,0.3c-1.4,0-2.6-1.2-2.6-2.6s1.2-2.6,2.6-2.6s2.6,1.2,2.6,2.6    c0,0.6,0.5,1.1,1.1,1.1C9.2,11.3,9.7,10.8,9.7,10.2z"/>
		<path id="直线-7_1_" class="st2" d="M9.7,9.1L7.5,0.8C7.3,0.2,6.7-0.1,6.1,0s-1,0.8-0.8,1.4l2.3,8.3c0.2,0.6,0.8,1,1.4,0.8    C9.5,10.4,9.9,9.7,9.7,9.1z"/>
		<path id="直线-8_1_" class="st2" d="M6,2.2l4.5,1.6c0.6,0.2,1.2-0.1,1.4-0.7s-0.1-1.2-0.7-1.4L6.7,0.1C6.2-0.1,5.5,0.2,5.3,0.8    S5.4,2,6,2.2z"/>
	</g>
</g>
<g id="_x32_-苹果文件" transform="translate(122.000000, 562.000000)">
	<g id="编组_25_" transform="translate(4.500000, 3.000000)">
		<path id="形状结合_42_" class="st9" d="M1.5,30h18l7.5-7.5v-21C27,0.7,26.3,0,25.5,0h-24C0.7,0,0,0.7,0,1.5v27    C0,29.3,0.7,30,1.5,30z"/>
		<path id="矩形_28_" class="st10" d="M19.5,30l7.5-7.5h-6c-0.8,0-1.5,0.7-1.5,1.5V30z"/>
	</g>
	<path id="形状_3_" class="st2" d="M21.8,17.3c0-1.6,1.4-2.4,1.5-2.4c-0.8-1.1-2.1-1.2-2.5-1.3c-1.1-0.1-2.1,0.6-2.7,0.6   c-0.5,0-1.4-0.6-2.3-0.6c-1.2,0-2.3,0.6-2.9,1.6c-1.2,2-0.3,4.8,0.9,6.4c0.6,0.8,1.3,1.6,2.2,1.6c0.9,0,1.2-0.5,2.3-0.5   s1.4,0.5,2.3,0.5s1.5-0.8,2.1-1.6c0.7-0.9,0.9-1.8,1-1.8C23.6,19.8,21.8,19.2,21.8,17.3L21.8,17.3z M20,12.5c0.5-0.5,0.8-1.3,0.7-2   c-0.7,0-1.5,0.4-2,1c-0.5,0.5-0.8,1.2-0.7,2C18.7,13.5,19.5,13.1,20,12.5z"/>
</g>
<g id="_x32_-企业部门" transform="translate(122.000000, 642.000000)">
	<g id="编组_26_" transform="translate(3.000000, 3.000000)">
		<path id="路径_1_" class="st28" d="M0,27V1.5C0,0.7,0.7,0,1.5,0h9.9c0.4,0,0.8,0.2,1.1,0.4l2.1,2.1c0.2,0.3,0.6,0.5,1,0.5h12.9    C29.3,3,30,3.7,30,4.5V27c0,0.8-0.7,1.5-1.5,1.5h-27C0.7,28.5,0,27.8,0,27z"/>
		<path id="矩形_29_" class="st29" d="M1.5,6h27C29.3,6,30,6.7,30,7.5V27c0,0.8-0.7,1.5-1.5,1.5h-27C0.7,28.5,0,27.8,0,27V7.5    C0,6.7,0.7,6,1.5,6z"/>
	</g>
	<g id="编组-2_9_" transform="translate(10.500000, 13.500000)">
		<circle id="椭圆形_4_" class="st2" cx="7.5" cy="2" r="2"/>
		<circle id="椭圆形备份" class="st2" cx="7.5" cy="10.2" r="2"/>
		<circle id="椭圆形备份-2" class="st2" cx="13" cy="10.2" r="2"/>
		<circle id="椭圆形备份-3" class="st2" cx="2" cy="10.2" r="2"/>
		<path id="路径-33" class="st2" d="M12.1,7v1.9c0,0.5,0.4,0.8,0.8,0.8c0.5,0,0.8-0.4,0.8-0.8v-2c0-0.8-0.7-1.5-1.5-1.5H2.7    C1.9,5.3,1.2,6,1.2,6.8v2c0,0.5,0.4,0.8,0.8,0.8s0.8-0.4,0.8-0.8V7H12.1z"/>
		<polygon id="直线-11" class="st2" points="6.7,1.2 6.7,11 8.3,11 8.3,1.2   "/>
	</g>
</g>
<path class="st30" d="M156.2,696h-15.5c-0.2,0-0.3-0.1-0.4-0.1l-2.6-2.6l-0.2-0.1c-0.6-0.4-1.3-0.6-1.9-0.6h-11.9  c-1.5,0-2.8,1.3-2.8,2.7v11c0-0.2,0-0.3,0.1-0.4c0,0.1-0.1,0.3-0.1,0.4v18.8c0,1.3,1.3,2.4,2.8,2.4h32.4c1.5,0,2.8-1.1,2.8-2.4  v-18.8c0-0.2,0-0.3-0.1-0.4c0,0.1,0.1,0.3,0.1,0.4v-7.5C159,697.2,157.7,696,156.2,696z M158.4,704.8  C158.4,704.8,158.4,704.7,158.4,704.8C158.4,704.7,158.4,704.8,158.4,704.8z M123,695.2c0-0.4,0.4-0.7,0.8-0.7h11.9  c0.2,0,0.4,0.1,0.7,0.3l2.4,2.3c0.4,0.6,1.2,0.9,2,0.9h15.5c0.4,0,0.8,0.4,0.8,0.7v5.2c0,0,0,0,0,0c-0.3-0.1-0.5-0.1-0.8-0.1h-32.4  c-0.3,0-0.5,0-0.8,0.1c0,0,0,0,0,0V695.2z M121.6,704.7C121.6,704.7,121.6,704.8,121.6,704.7C121.6,704.8,121.6,704.7,121.6,704.7z   M121.2,705.4c0,0.1-0.1,0.2-0.1,0.3C121.1,705.5,121.2,705.4,121.2,705.4z M121.4,705c0,0.1-0.1,0.1-0.1,0.2  C121.3,705.1,121.4,705,121.4,705z M157,725.1c0,0.1-0.3,0.4-0.8,0.4h-32.4c-0.5,0-0.8-0.3-0.8-0.4v-18.8c0-0.1,0.3-0.4,0.8-0.4  h32.4c0.5,0,0.8,0.3,0.8,0.4V725.1z M158.8,705.4c0,0.1,0.1,0.2,0.1,0.3C158.9,705.5,158.8,705.4,158.8,705.4z M158.6,705  c0,0.1,0.1,0.1,0.1,0.2C158.7,705.1,158.6,705,158.6,705z"/>
<g id="_x32_-zip_1_" transform="translate(122.000000, 522.000000)">
	<g id="编组_27_" transform="translate(4.500000, 3.000000)">
		<path id="形状结合_43_" class="st22" d="M1.5,0h24C26.3,0,27,0.7,27,1.5v27c0,0.8-0.7,1.5-1.5,1.5h-24C0.7,30,0,29.3,0,28.5    v-27C0,0.7,0.7,0,1.5,0z"/>
		<path id="形状结合_44_" class="st2" d="M9,0h4.5v3H9V0z M9,6h4.5v3H9V6z M9,12h4.5v3H9V12z M13.5,3H18v3h-4.5V3z M13.5,9H18v3    h-4.5V9z"/>
		<path id="形状结合_45_" class="st23" d="M0,15h13.5v15h-12C0.7,30,0,29.3,0,28.5V15z"/>
		<path id="形状结合备份_1_" class="st0" d="M27,15H13.5v15h12c0.8,0,1.5-0.7,1.5-1.5V15z"/>
		<rect id="矩形_30_" y="15" class="st24" width="27" height="6"/>
		<path id="矩形_31_" class="st2" d="M9.8,13.5h7.5c1.2,0,2.3,1,2.3,2.3v4.5c0,1.2-1,2.3-2.3,2.3H9.8c-1.2,0-2.3-1-2.3-2.3v-4.5    C7.5,14.5,8.5,13.5,9.8,13.5z M10.5,16.5v3h6v-3H10.5z"/>
	</g>
</g>
<g id="_x32_-image_2_" transform="translate(202.000000, 322.000000)">
	<g id="编组_28_" transform="translate(4.500000, 3.000000)">
		<path id="形状结合_46_" class="st7" d="M1.5,30h18l7.5-7.5v-21C27,0.7,26.3,0,25.5,0h-24C0.7,0,0,0.7,0,1.5v27    C0,29.3,0.7,30,1.5,30z"/>
		<path id="矩形_32_" class="st8" d="M19.5,30l7.5-7.5h-6c-0.8,0-1.5,0.7-1.5,1.5V30z"/>
	</g>
	<path id="形状结合_47_" class="st2" d="M22,15c-0.8,0-1.5-0.7-1.5-1.5S21.2,12,22,12s1.5,0.7,1.5,1.5S22.9,15,22,15z    M23.4,22.4l-7.5-4.1l-3.1,3.8c-0.4,0.5-1.1,0.5-1.6,0.2c-0.5-0.4-0.5-1.1-0.2-1.6l3.7-4.5c0.3-0.4,0.9-0.5,1.4-0.3l8.3,4.5   c0.5,0.3,0.7,1,0.5,1.5C24.6,22.5,23.9,22.7,23.4,22.4z"/>
</g>
<g id="_x32_-相机照片_2_" transform="translate(202.000000, 402.000000)">
	<g id="编组_29_" transform="translate(4.500000, 3.000000)">
		<path id="形状结合_48_" class="st9" d="M1.5,30h18l7.5-7.5v-21C27,0.7,26.3,0,25.5,0h-24C0.7,0,0,0.7,0,1.5v27    C0,29.3,0.7,30,1.5,30z"/>
		<path id="矩形_33_" class="st10" d="M19.5,30l7.5-7.5h-6c-0.8,0-1.5,0.7-1.5,1.5V30z"/>
	</g>
	
		<g id="编组-2_10_" transform="translate(18.000000, 17.250000) rotate(-180.000000) translate(-18.000000, -17.250000) translate(11.250000, 10.500000)">
		<path id="形状结合_49_" class="st13" d="M3.5,0H10c2,0,3.5,1.6,3.5,3.5V10c0,2-1.6,3.5-3.5,3.5H3.5c-2,0-3.5-1.6-3.5-3.5V3.5    C0,1.6,1.6,0,3.5,0z M3.5,1.9c-0.9,0-1.6,0.7-1.6,1.6V10c0,0.9,0.7,1.6,1.6,1.6H10c0.9,0,1.6-0.7,1.6-1.6V3.5    c0-0.9-0.7-1.6-1.6-1.6H3.5z M6.8,3.5C8.5,3.5,10,5,10,6.8S8.5,10,6.8,10S3.5,8.5,3.5,6.8S5,3.5,6.8,3.5z M6.8,5.5    C6,5.5,5.5,6,5.5,6.8S6,8,6.8,8S8,7.5,8,6.8S7.5,5.5,6.8,5.5z"/>
		<circle id="椭圆形_5_" class="st2" cx="3.5" cy="10.1" r="1"/>
	</g>
</g>
<g id="_x32_-视频_2_" transform="translate(202.000000, 442.000000)">
	<g id="编组_30_" transform="translate(4.500000, 3.000000)">
		<path id="形状结合_50_" class="st14" d="M1.5,30h18l7.5-7.5v-21C27,0.7,26.3,0,25.5,0h-24C0.7,0,0,0.7,0,1.5v27    C0,29.3,0.7,30,1.5,30z"/>
		<path id="矩形_34_" class="st15" d="M19.5,30l7.5-7.5h-6c-0.8,0-1.5,0.7-1.5,1.5V30z"/>
	</g>
	
		<g id="编组-2_11_" transform="translate(18.000000, 17.250000) rotate(-90.000000) translate(-18.000000, -17.250000) translate(9.750000, 9.000000)">
		<path id="形状结合_51_" class="st2" d="M8.3,15.1c-3.8,0-6.8-3-6.8-6.8s3-6.8,6.8-6.8s6.8,3,6.8,6.8c0,1-0.2,1.9-0.6,2.8    c-0.3,0.7-0.8,1.4-1.3,2c-0.4,0.4-1.1,0.5-1.6,0c-0.4-0.4-0.5-1.1,0-1.6c0.4-0.4,0.7-0.8,0.9-1.3c0.3-0.6,0.4-1.2,0.4-1.8    c0-2.5-2-4.6-4.6-4.6s-4.6,2-4.6,4.6s2,4.6,4.6,4.6c0.6,0,1.1,0.5,1.1,1.1S8.9,15.1,8.3,15.1z M7.7,10L6.6,7.9    c-0.2-0.4,0-0.8,0.4-1c0.1-0.1,0.2-0.1,0.4-0.1h1.8c0.4,0,0.8,0.4,0.8,0.8c0,0.1,0,0.2-0.1,0.4l-1.1,2c-0.2,0.3-0.6,0.5-0.9,0.3    C7.8,10.3,7.7,10.2,7.7,10z"/>
	</g>
</g>
<g id="_x32_-音乐_2_" transform="translate(202.000000, 482.000000)">
	<g id="编组_31_" transform="translate(4.500000, 3.000000)">
		<path id="形状结合_52_" class="st16" d="M1.5,30h18l7.5-7.5v-21C27,0.7,26.3,0,25.5,0h-24C0.7,0,0,0.7,0,1.5v27    C0,29.3,0.7,30,1.5,30z"/>
		<path id="矩形_35_" class="st17" d="M19.5,30l7.5-7.5h-6c-0.8,0-1.5,0.7-1.5,1.5V30z"/>
	</g>
	<g id="编组-3_4_" transform="translate(12.000000, 9.750000)">
		<path id="椭圆形_6_" class="st2" d="M9.7,10.2c0-2.7-2.2-4.9-4.9-4.9S0,7.5,0,10.2s2.2,4.9,4.9,4.9c0.8,0,1.6-0.2,2.2-0.5    s0.8-1,0.5-1.5c-0.3-0.6-1-0.8-1.5-0.5c-0.4,0.2-0.8,0.3-1.2,0.3c-1.4,0-2.6-1.2-2.6-2.6s1.2-2.6,2.6-2.6s2.6,1.2,2.6,2.6    c0,0.6,0.5,1.1,1.1,1.1C9.2,11.3,9.7,10.8,9.7,10.2z"/>
		<path id="直线-7_2_" class="st2" d="M9.7,9.1L7.5,0.8C7.3,0.2,6.7-0.1,6.1,0s-1,0.8-0.8,1.4l2.3,8.3c0.2,0.6,0.8,1,1.4,0.8    C9.5,10.4,9.9,9.7,9.7,9.1z"/>
		<path id="直线-8_2_" class="st2" d="M6,2.2l4.5,1.6c0.6,0.2,1.2-0.1,1.4-0.7s-0.1-1.2-0.7-1.4L6.7,0.1C6.2-0.1,5.5,0.2,5.3,0.8    S5.4,2,6,2.2z"/>
	</g>
</g>
<g id="_x32_-ae" transform="translate(202.000000, 562.000000)">
	<g id="编组_32_" transform="translate(4.500000, 3.000000)">
		<path id="形状结合_53_" class="st14" d="M1.5,30h18l7.5-7.5v-21C27,0.7,26.3,0,25.5,0h-24C0.7,0,0,0.7,0,1.5v27    C0,29.3,0.7,30,1.5,30z"/>
		<path id="矩形_36_" class="st15" d="M19.5,30l7.5-7.5h-6c-0.8,0-1.5,0.7-1.5,1.5V30z"/>
	</g>
	<path id="形状结合_54_" class="st13" d="M13.5,19h1.6l-0.8-2.9L13.5,19z M15.7,21.1h-2.8l-0.4,1.4c-0.2,0.6-0.7,0.9-1.3,0.7   s-0.8-0.8-0.7-1.3l2.8-9.9c0.3-1,1.7-1,1.9,0l2.7,9.9c0.2,0.6-0.2,1.1-0.7,1.3c-0.5,0.2-1.1-0.2-1.2-0.7L15.7,21.1z M24.5,19.7   L24.5,19.7h-3.9c0.1,0.5,0.4,0.9,0.7,1.1c0.2,0.2,0.5,0.3,0.7,0.3s0.5-0.1,0.7-0.3c0.4-0.3,1-0.2,1.3,0.2c0.3,0.5,0.2,1.1-0.2,1.5   c-0.5,0.4-1.2,0.7-1.8,0.7c-0.7,0-1.3-0.2-1.8-0.7c-1-0.8-1.6-2.3-1.6-3.9c0-2.5,1.5-4.6,3.4-4.6s3.4,2.1,3.4,4.6   C25.5,19.2,25.1,19.7,24.5,19.7C24.6,19.7,24.5,19.7,24.5,19.7z M23.5,17.6c-0.3-0.8-0.8-1.4-1.4-1.4s-1.1,0.6-1.4,1.4H23.5z"/>
</g>
<g id="_x32_-企业部门_1_" transform="translate(202.000000, 642.000000)">
	<g id="编组_33_" transform="translate(3.000000, 3.000000)">
		<path id="路径_2_" class="st28" d="M0,27V1.5C0,0.7,0.7,0,1.5,0h9.9c0.4,0,0.8,0.2,1.1,0.4l2.1,2.1c0.2,0.3,0.6,0.5,1,0.5h12.9    C29.3,3,30,3.7,30,4.5V27c0,0.8-0.7,1.5-1.5,1.5h-27C0.7,28.5,0,27.8,0,27z"/>
		<path id="矩形_37_" class="st29" d="M1.5,6h27C29.3,6,30,6.7,30,7.5V27c0,0.8-0.7,1.5-1.5,1.5h-27C0.7,28.5,0,27.8,0,27V7.5    C0,6.7,0.7,6,1.5,6z"/>
	</g>
	<g id="编组-2_12_" transform="translate(10.500000, 13.500000)">
		<circle id="椭圆形_7_" class="st2" cx="7.5" cy="2" r="2"/>
		<circle id="椭圆形备份_1_" class="st2" cx="7.5" cy="10.2" r="2"/>
		<circle id="椭圆形备份-2_1_" class="st2" cx="13" cy="10.2" r="2"/>
		<circle id="椭圆形备份-3_1_" class="st2" cx="2" cy="10.2" r="2"/>
		<path id="路径-33_1_" class="st2" d="M12.1,7v1.9c0,0.5,0.4,0.8,0.8,0.8c0.5,0,0.8-0.4,0.8-0.8v-2c0-0.8-0.7-1.5-1.5-1.5H2.7    C1.9,5.3,1.2,6,1.2,6.8v2c0,0.5,0.4,0.8,0.8,0.8s0.8-0.4,0.8-0.8V7H12.1z"/>
		<polygon id="直线-11_1_" class="st2" points="6.7,1.2 6.7,11 8.3,11 8.3,1.2   "/>
	</g>
</g>
<g id="_x32_-zip_2_" transform="translate(202.000000, 522.000000)">
	<g id="编组_34_" transform="translate(4.500000, 3.000000)">
		<path id="形状结合_55_" class="st22" d="M1.5,0h24C26.3,0,27,0.7,27,1.5v27c0,0.8-0.7,1.5-1.5,1.5h-24C0.7,30,0,29.3,0,28.5    v-27C0,0.7,0.7,0,1.5,0z"/>
		<path id="形状结合_56_" class="st2" d="M9,0h4.5v3H9V0z M9,6h4.5v3H9V6z M9,12h4.5v3H9V12z M13.5,3H18v3h-4.5V3z M13.5,9H18v3    h-4.5V9z"/>
		<path id="形状结合_57_" class="st23" d="M0,15h13.5v15h-12C0.7,30,0,29.3,0,28.5V15z"/>
		<path id="形状结合备份_2_" class="st0" d="M27,15H13.5v15h12c0.8,0,1.5-0.7,1.5-1.5V15z"/>
		<rect id="矩形_38_" y="15" class="st24" width="27" height="6"/>
		<path id="矩形_39_" class="st2" d="M9.8,13.5h7.5c1.2,0,2.3,1,2.3,2.3v4.5c0,1.2-1,2.3-2.3,2.3H9.8c-1.2,0-2.3-1-2.3-2.3v-4.5    C7.5,14.5,8.5,13.5,9.8,13.5z M10.5,16.5v3h6v-3H10.5z"/>
	</g>
</g>
<g id="_x32_-视频_3_" transform="translate(322.000000, 442.000000)">
	<g id="编组_35_" transform="translate(4.500000, 3.000000)">
		<path id="形状结合_58_" class="st14" d="M1.5,30h18l7.5-7.5v-21C27,0.7,26.3,0,25.5,0h-24C0.7,0,0,0.7,0,1.5v27    C0,29.3,0.7,30,1.5,30z"/>
		<path id="矩形_40_" class="st15" d="M19.5,30l7.5-7.5h-6c-0.8,0-1.5,0.7-1.5,1.5V30z"/>
	</g>
	
		<g id="编组-2_13_" transform="translate(18.000000, 17.250000) rotate(-90.000000) translate(-18.000000, -17.250000) translate(9.750000, 9.000000)">
		<path id="形状结合_59_" class="st2" d="M8.3,15.1c-3.8,0-6.8-3-6.8-6.8s3-6.8,6.8-6.8s6.8,3,6.8,6.8c0,1-0.2,1.9-0.6,2.8    c-0.3,0.7-0.8,1.4-1.3,2c-0.4,0.4-1.1,0.5-1.6,0c-0.4-0.4-0.5-1.1,0-1.6c0.4-0.4,0.7-0.8,0.9-1.3c0.3-0.6,0.4-1.2,0.4-1.8    c0-2.5-2-4.6-4.6-4.6s-4.6,2-4.6,4.6s2,4.6,4.6,4.6c0.6,0,1.1,0.5,1.1,1.1S8.9,15.1,8.3,15.1z M7.7,10L6.6,7.9    c-0.2-0.4,0-0.8,0.4-1c0.1-0.1,0.2-0.1,0.4-0.1h1.8c0.4,0,0.8,0.4,0.8,0.8c0,0.1,0,0.2-0.1,0.4l-1.1,2c-0.2,0.3-0.6,0.5-0.9,0.3    C7.8,10.3,7.7,10.2,7.7,10z"/>
	</g>
</g>
<g id="_x32_-音乐_3_" transform="translate(322.000000, 482.000000)">
	<g id="编组_36_" transform="translate(4.500000, 3.000000)">
		<path id="形状结合_60_" class="st16" d="M1.5,30h18l7.5-7.5v-21C27,0.7,26.3,0,25.5,0h-24C0.7,0,0,0.7,0,1.5v27    C0,29.3,0.7,30,1.5,30z"/>
		<path id="矩形_41_" class="st17" d="M19.5,30l7.5-7.5h-6c-0.8,0-1.5,0.7-1.5,1.5V30z"/>
	</g>
	<g id="编组-3_5_" transform="translate(12.000000, 9.750000)">
		<path id="椭圆形_8_" class="st2" d="M9.7,10.2c0-2.7-2.2-4.9-4.9-4.9S0,7.5,0,10.2s2.2,4.9,4.9,4.9c0.8,0,1.6-0.2,2.2-0.5    s0.8-1,0.5-1.5c-0.3-0.6-1-0.8-1.5-0.5c-0.4,0.2-0.8,0.3-1.2,0.3c-1.4,0-2.6-1.2-2.6-2.6s1.2-2.6,2.6-2.6s2.6,1.2,2.6,2.6    c0,0.6,0.5,1.1,1.1,1.1C9.2,11.3,9.7,10.8,9.7,10.2z"/>
		<path id="直线-7_3_" class="st2" d="M9.7,9.1L7.5,0.8C7.3,0.2,6.7-0.1,6.1,0s-1,0.8-0.8,1.4l2.3,8.3c0.2,0.6,0.8,1,1.4,0.8    C9.5,10.4,9.9,9.7,9.7,9.1z"/>
		<path id="直线-8_3_" class="st2" d="M6,2.2l4.5,1.6c0.6,0.2,1.2-0.1,1.4-0.7s-0.1-1.2-0.7-1.4L6.7,0.1C6.2-0.1,5.5,0.2,5.3,0.8    S5.4,2,6,2.2z"/>
	</g>
</g>
<g id="_x32_-云文件" transform="translate(42.000000, 2.000000)">
	<g id="编组_37_" transform="translate(4.500000, 3.000000)">
		<path id="形状结合_61_" class="st29" d="M1.5,30h18l7.5-7.5v-21C27,0.7,26.3,0,25.5,0h-24C0.7,0,0,0.7,0,1.5v27    C0,29.3,0.7,30,1.5,30z"/>
		<path id="路径_3_" class="st2" d="M21.4,15c0-2.1-1.6-3.8-3.6-3.9c0,0,0,0-0.1,0c-0.9-1.9-2.8-3.1-5-3.1c-2.9,0-5.3,2.2-5.5,5.1    c0,0,0,0,0,0.1c-1,0.6-1.6,1.6-1.6,2.7C5.6,17.6,7,19,8.7,19h9.1c0.6,0,1.1-0.5,1.1-1.1s-0.5-1.1-1.1-1.1H8.7    c-0.5,0-0.9-0.4-0.9-0.9c0-0.3,0.2-0.6,0.4-0.7c0.7-0.4,1.1-1.1,1.2-1.9c0.1-1.7,1.5-3,3.2-3c1.3,0,2.4,0.7,2.9,1.9    c0.4,0.8,1.1,1.3,1.9,1.3c0.9,0.1,1.5,0.8,1.5,1.7c0,0.6,0.5,1.1,1.1,1.1S21.4,15.6,21.4,15z"/>
		<path id="矩形_42_" class="st28" d="M19.5,30l7.5-7.5h-6c-0.8,0-1.5,0.7-1.5,1.5V30z"/>
	</g>
</g>
<g id="_x32_-ppt" transform="translate(42.000000, 42.000000)">
	<g id="编组_38_" transform="translate(4.500000, 3.000000)">
		<path id="形状结合_62_" class="st31" d="M1.5,30h18l7.5-7.5v-21C27,0.7,26.3,0,25.5,0h-24C0.7,0,0,0.7,0,1.5v27    C0,29.3,0.7,30,1.5,30z"/>
		<path id="矩形_43_" class="st32" d="M19.5,30l7.5-7.5h-6c-0.8,0-1.5,0.7-1.5,1.5V30z"/>
		<path id="路径-2_1_" class="st2" d="M10.1,16.1H15c2.3,0,4.1-1.8,4.1-4.1S17.3,7.9,15,7.9H9C8.4,7.9,7.9,8.4,7.9,9    s0.5,1.1,1.1,1.1h6c1,0,1.9,0.8,1.9,1.9S16,13.9,15,13.9H9c-0.6,0-1.1,0.5-1.1,1.1v4.5c0,0.6,0.5,1.1,1.1,1.1s1.1-0.5,1.1-1.1    V16.1z"/>
	</g>
</g>
<g id="_x32_-pages" transform="translate(42.000000, 82.000000)">
	<g id="编组_39_" transform="translate(4.500000, 3.000000)">
		<path id="形状结合_63_" class="st11" d="M1.5,30h18l7.5-7.5v-21C27,0.7,26.3,0,25.5,0h-24C0.7,0,0,0.7,0,1.5v27    C0,29.3,0.7,30,1.5,30z"/>
		<path id="矩形_44_" class="st12" d="M19.5,30l7.5-7.5h-6c-0.8,0-1.5,0.7-1.5,1.5V30z"/>
	</g>
	<path id="形状结合_64_" class="st2" d="M14.5,13.8l1.2,7l1.6-0.3c0.6-0.1,1.2,0.3,1.3,0.9c0.1,0.6-0.3,1.2-0.9,1.3L15,23.3   c-0.6,0.1-1.2-0.3-1.3-0.9L12,13.1c-0.1-0.6,0.3-1.2,0.9-1.3l6.9-1.2c0.6-0.1,1.2,0.3,1.3,0.9l0.4,2.2c0.1,0.6-0.3,1.2-0.9,1.3   s-1.2-0.3-1.3-0.9L19.2,13L14.5,13.8z M24.1,12.2l0.5,0.2c0.5,0.2,0.7,0.7,0.5,1.2l-4,10.5c0,0.1-0.1,0.2-0.2,0.2l-0.8,0.5   c-0.3,0.2-0.6,0.1-0.8-0.2c0-0.1-0.1-0.1-0.1-0.2l-0.3-1c0-0.1,0-0.2,0-0.3l4-10.5C23.1,12.3,23.6,12,24.1,12.2z"/>
</g>
<g id="_x32_-文本_2_" transform="translate(42.000000, 242.000000)">
	<g id="编组_40_" transform="translate(4.500000, 3.000000)">
		<path id="形状结合_65_" class="st7" d="M1.5,30h18l7.5-7.5v-21C27,0.7,26.3,0,25.5,0h-24C0.7,0,0,0.7,0,1.5v27    C0,29.3,0.7,30,1.5,30z"/>
		<path id="矩形_45_" class="st8" d="M19.5,30l7.5-7.5h-6c-0.8,0-1.5,0.7-1.5,1.5V30z"/>
		<path id="形状结合_66_" class="st2" d="M7.1,12.4c-0.6,0-1.1-0.5-1.1-1.1s0.5-1.1,1.1-1.1h12.8c0.6,0,1.1,0.5,1.1,1.1    s-0.5,1.1-1.1,1.1H7.1z M7.1,18.8c-0.6,0-1.1-0.5-1.1-1.1s0.5-1.1,1.1-1.1h7.1c0.6,0,1.1,0.5,1.1,1.1s-0.5,1.1-1.1,1.1H7.1z"/>
	</g>
</g>
<g id="_x32_-html_2_" transform="translate(42.000000, 282.000000)">
	<g id="编组_41_" transform="translate(4.500000, 3.000000)">
		<path id="形状结合_67_" class="st9" d="M1.5,30h18l7.5-7.5v-21C27,0.7,26.3,0,25.5,0h-24C0.7,0,0,0.7,0,1.5v27    C0,29.3,0.7,30,1.5,30z"/>
		<path id="矩形_46_" class="st10" d="M19.5,30l7.5-7.5h-6c-0.8,0-1.5,0.7-1.5,1.5V30z"/>
	</g>
	<g id="编组-2_14_" transform="translate(10.500000, 13.500000)">
		<path id="形状结合_68_" class="st2" d="M7.1,0.9c0.1-0.6,0.7-1,1.3-0.9s1,0.7,0.9,1.3L8.1,8.2C8,8.8,7.4,9.3,6.8,9.1    C6.2,9,5.7,8.4,5.9,7.8L7.1,0.9z M12.2,4.8l-2.1-2.1c-0.4-0.4-0.4-1.2,0-1.6s1.2-0.4,1.6,0L14.6,4c0.4,0.4,0.4,1.2,0,1.6l-2.9,2.9    c-0.4,0.4-1.2,0.4-1.6,0s-0.4-1.2,0-1.6L12.2,4.8z M2.8,4.8l2.1,2.1c0.4,0.4,0.4,1.2,0,1.6s-1.2,0.4-1.6,0l-3-2.9    c-0.4-0.4-0.4-1.2,0-1.6l3-3c0.4-0.4,1.2-0.4,1.6,0s0.4,1.2,0,1.6L2.8,4.8z"/>
	</g>
</g>
<g id="_x32_-image_3_" transform="translate(42.000000, 322.000000)">
	<g id="编组_42_" transform="translate(4.500000, 3.000000)">
		<path id="形状结合_69_" class="st7" d="M1.5,30h18l7.5-7.5v-21C27,0.7,26.3,0,25.5,0h-24C0.7,0,0,0.7,0,1.5v27    C0,29.3,0.7,30,1.5,30z"/>
		<path id="矩形_47_" class="st8" d="M19.5,30l7.5-7.5h-6c-0.8,0-1.5,0.7-1.5,1.5V30z"/>
	</g>
	<path id="形状结合_70_" class="st2" d="M22,15c-0.8,0-1.5-0.7-1.5-1.5S21.2,12,22,12s1.5,0.7,1.5,1.5S22.9,15,22,15z    M23.4,22.4l-7.5-4.1l-3.1,3.8c-0.4,0.5-1.1,0.5-1.6,0.2c-0.5-0.4-0.5-1.1-0.2-1.6l3.7-4.5c0.3-0.4,0.9-0.5,1.4-0.3l8.3,4.5   c0.5,0.3,0.7,1,0.5,1.5C24.6,22.5,23.9,22.7,23.4,22.4z"/>
</g>
<g id="_x32_-ai_2_" transform="translate(42.000000, 362.000000)">
	<g id="编组_43_" transform="translate(4.500000, 3.000000)">
		<path id="形状结合_71_" class="st11" d="M1.5,30h18l7.5-7.5v-21C27,0.7,26.3,0,25.5,0h-24C0.7,0,0,0.7,0,1.5v27    C0,29.3,0.7,30,1.5,30z"/>
		<path id="矩形_48_" class="st12" d="M19.5,30l7.5-7.5h-6c-0.8,0-1.5,0.7-1.5,1.5V30z"/>
	</g>
	<path id="形状结合_72_" class="st2" d="M22.5,21.1v-6.5c0-0.6,0.5-1.1,1.1-1.1s1.1,0.5,1.1,1.1v6.5v1c0,0.6-0.5,1.1-1.1,1.1   s-1.1-0.5-1.1-1.1V21.1z M14.8,18.7h2l-0.9-3.1L14.8,18.7z M17.4,21H14l-0.5,1.4c-0.2,0.6-0.9,0.9-1.5,0.8c-0.6-0.2-1-0.8-0.8-1.4   l3.4-10.5c0.3-1.1,2-1.1,2.3,0l3.2,10.5c0.2,0.6-0.2,1.2-0.8,1.4S18,23,17.8,22.4L17.4,21z M23.6,12.8c-0.6,0-1.1-0.5-1.1-1.1   s0.5-1.1,1.1-1.1s1.1,0.5,1.1,1.1S24.2,12.8,23.6,12.8z"/>
</g>
<g id="_x32_-相机照片_3_" transform="translate(42.000000, 402.000000)">
	<g id="编组_44_" transform="translate(4.500000, 3.000000)">
		<path id="形状结合_73_" class="st9" d="M1.5,30h18l7.5-7.5v-21C27,0.7,26.3,0,25.5,0h-24C0.7,0,0,0.7,0,1.5v27    C0,29.3,0.7,30,1.5,30z"/>
		<path id="矩形_49_" class="st10" d="M19.5,30l7.5-7.5h-6c-0.8,0-1.5,0.7-1.5,1.5V30z"/>
	</g>
	
		<g id="编组-2_15_" transform="translate(18.000000, 17.250000) rotate(-180.000000) translate(-18.000000, -17.250000) translate(11.250000, 10.500000)">
		<path id="形状结合_74_" class="st13" d="M3.5,0H10c2,0,3.5,1.6,3.5,3.5V10c0,2-1.6,3.5-3.5,3.5H3.5c-2,0-3.5-1.6-3.5-3.5V3.5    C0,1.6,1.6,0,3.5,0z M3.5,1.9c-0.9,0-1.6,0.7-1.6,1.6V10c0,0.9,0.7,1.6,1.6,1.6H10c0.9,0,1.6-0.7,1.6-1.6V3.5    c0-0.9-0.7-1.6-1.6-1.6H3.5z M6.8,3.5C8.5,3.5,10,5,10,6.8S8.5,10,6.8,10S3.5,8.5,3.5,6.8S5,3.5,6.8,3.5z M6.8,5.5    C6,5.5,5.5,6,5.5,6.8S6,8,6.8,8S8,7.5,8,6.8S7.5,5.5,6.8,5.5z"/>
		<circle id="椭圆形_9_" class="st2" cx="3.5" cy="10.1" r="1"/>
	</g>
</g>
<g id="_x32_-视频_4_" transform="translate(42.000000, 442.000000)">
	<g id="编组_45_" transform="translate(4.500000, 3.000000)">
		<path id="形状结合_75_" class="st14" d="M1.5,30h18l7.5-7.5v-21C27,0.7,26.3,0,25.5,0h-24C0.7,0,0,0.7,0,1.5v27    C0,29.3,0.7,30,1.5,30z"/>
		<path id="矩形_50_" class="st15" d="M19.5,30l7.5-7.5h-6c-0.8,0-1.5,0.7-1.5,1.5V30z"/>
	</g>
	
		<g id="编组-2_16_" transform="translate(18.000000, 17.250000) rotate(-90.000000) translate(-18.000000, -17.250000) translate(9.750000, 9.000000)">
		<path id="形状结合_76_" class="st2" d="M8.3,15.1c-3.8,0-6.8-3-6.8-6.8s3-6.8,6.8-6.8s6.8,3,6.8,6.8c0,1-0.2,1.9-0.6,2.8    c-0.3,0.7-0.8,1.4-1.3,2c-0.4,0.4-1.1,0.5-1.6,0c-0.4-0.4-0.5-1.1,0-1.6c0.4-0.4,0.7-0.8,0.9-1.3c0.3-0.6,0.4-1.2,0.4-1.8    c0-2.5-2-4.6-4.6-4.6s-4.6,2-4.6,4.6s2,4.6,4.6,4.6c0.6,0,1.1,0.5,1.1,1.1S8.9,15.1,8.3,15.1z M7.7,10L6.6,7.9    c-0.2-0.4,0-0.8,0.4-1c0.1-0.1,0.2-0.1,0.4-0.1h1.8c0.4,0,0.8,0.4,0.8,0.8c0,0.1,0,0.2-0.1,0.4l-1.1,2c-0.2,0.3-0.6,0.5-0.9,0.3    C7.8,10.3,7.7,10.2,7.7,10z"/>
	</g>
</g>
<g id="_x32_-音乐_4_" transform="translate(42.000000, 482.000000)">
	<g id="编组_46_" transform="translate(4.500000, 3.000000)">
		<path id="形状结合_77_" class="st16" d="M1.5,30h18l7.5-7.5v-21C27,0.7,26.3,0,25.5,0h-24C0.7,0,0,0.7,0,1.5v27    C0,29.3,0.7,30,1.5,30z"/>
		<path id="矩形_51_" class="st17" d="M19.5,30l7.5-7.5h-6c-0.8,0-1.5,0.7-1.5,1.5V30z"/>
	</g>
	<g id="编组-3_6_" transform="translate(12.000000, 9.750000)">
		<path id="椭圆形_10_" class="st2" d="M9.7,10.2c0-2.7-2.2-4.9-4.9-4.9S0,7.5,0,10.2s2.2,4.9,4.9,4.9c0.8,0,1.6-0.2,2.2-0.5    s0.8-1,0.5-1.5c-0.3-0.6-1-0.8-1.5-0.5c-0.4,0.2-0.8,0.3-1.2,0.3c-1.4,0-2.6-1.2-2.6-2.6s1.2-2.6,2.6-2.6s2.6,1.2,2.6,2.6    c0,0.6,0.5,1.1,1.1,1.1C9.2,11.3,9.7,10.8,9.7,10.2z"/>
		<path id="直线-7_4_" class="st2" d="M9.7,9.1L7.5,0.8C7.3,0.2,6.7-0.1,6.1,0s-1,0.8-0.8,1.4l2.3,8.3c0.2,0.6,0.8,1,1.4,0.8    C9.5,10.4,9.9,9.7,9.7,9.1z"/>
		<path id="直线-8_4_" class="st2" d="M6,2.2l4.5,1.6c0.6,0.2,1.2-0.1,1.4-0.7s-0.1-1.2-0.7-1.4L6.7,0.1C6.2-0.1,5.5,0.2,5.3,0.8    S5.4,2,6,2.2z"/>
	</g>
</g>
<g id="_x32_-文字" transform="translate(42.000000, 562.000000)">
	<g id="编组_47_" transform="translate(4.500000, 3.000000)">
		<path id="形状结合_78_" class="st9" d="M1.5,30h18l7.5-7.5v-21C27,0.7,26.3,0,25.5,0h-24C0.7,0,0,0.7,0,1.5v27    C0,29.3,0.7,30,1.5,30z"/>
		<path id="矩形_52_" class="st10" d="M19.5,30l7.5-7.5h-6c-0.8,0-1.5,0.7-1.5,1.5V30z"/>
	</g>
	<path id="形状结合_79_" class="st13" d="M22.4,17.2c0.5,0,0.9-0.4,0.9-0.8s-0.4-0.8-0.9-0.8c-0.3,0-0.5,0.1-0.7,0.2   c-0.4,0.4-1.1,0.4-1.5,0s-0.4-1,0-1.4c0.6-0.5,1.3-0.8,2.2-0.8c1.7,0,3.1,1.2,3.1,2.8v5.5c0,0.5-0.5,1-1.1,1   c-0.3,0-0.5-0.1-0.7-0.3c-0.4,0.2-0.8,0.3-1.3,0.3c-1.7,0-3.1-1.2-3.1-2.8S20.7,17.2,22.4,17.2z M22.4,20.9c0.5,0,0.9-0.4,0.9-0.8   s-0.4-0.8-0.9-0.8s-0.9,0.4-0.9,0.8S21.9,20.9,22.4,20.9z M13.7,18.7h1.8l-0.9-2.8L13.7,18.7z M16.1,20.8H13l-0.4,1.3   c-0.2,0.5-0.8,0.8-1.4,0.7s-0.9-0.7-0.7-1.3l3.1-9.5c0.3-1,1.8-1,2.1,0l2.9,9.5c0.2,0.5-0.2,1.1-0.8,1.3c-0.6,0.2-1.2-0.2-1.4-0.7   L16.1,20.8z"/>
</g>
<g id="_x32_-团队" transform="translate(42.000000, 642.000000)">
	<g id="编组_48_" transform="translate(3.000000, 3.000000)">
		<path id="路径_4_" class="st20" d="M0,27V1.5C0,0.7,0.7,0,1.5,0h9.9c0.4,0,0.8,0.2,1.1,0.4l2.1,2.1c0.2,0.3,0.6,0.5,1,0.5h12.9    C29.3,3,30,3.7,30,4.5V27c0,0.8-0.7,1.5-1.5,1.5h-27C0.7,28.5,0,27.8,0,27z"/>
		<path id="矩形_53_" class="st21" d="M1.5,6h27C29.3,6,30,6.7,30,7.5V27c0,0.8-0.7,1.5-1.5,1.5h-27C0.7,28.5,0,27.8,0,27V7.5    C0,6.7,0.7,6,1.5,6z"/>
		<g id="编组-3_7_" transform="translate(4.500000, 7.500000)">
			<path id="形状结合_80_" class="st2" d="M13.3,9.7c-1.8,0-3.3-1.5-3.3-3.3S11.4,3,13.3,3s3.3,1.5,3.3,3.3S15.1,9.7,13.3,9.7z      M10,11h6.5c1.1,0,2,0.9,2,2v0.5c0,0.8-0.7,1.5-1.5,1.5H9.5C8.7,15,8,14.3,8,13.5V13C8,11.9,8.9,11,10,11z"/>
			<g id="编组-2_17_">
				<path id="形状_4_" class="st21" d="M5.7,11H5.5c-1.1,0-2,0.9-2,2v0.5C3.5,14.3,4.2,15,5,15h7.5c0.8,0,1.5-0.7,1.5-1.5V13      c0-1.1-0.9-2-2-2h-0.2c-0.9,0.6-1.9,0.9-3,0.9S6.6,11.6,5.7,11z M3.2,6.3c0-3.1,2.5-5.6,5.5-5.6s5.5,2.5,5.5,5.6      c0,1-0.3,1.9-0.7,2.7c1.6,0.6,2.7,2.2,2.7,3.9v0.5c0,2.1-1.7,3.8-3.8,3.8H5c-2.1,0-3.8-1.7-3.8-3.8V13c0-1.8,1.1-3.3,2.7-3.9      C3.5,8.2,3.2,7.3,3.2,6.3z M11,8.8c0.6-0.6,1-1.5,1-2.4C12,4.5,10.6,3,8.8,3S5.5,4.5,5.5,6.3c0,1,0.4,1.8,1,2.4L11,8.8L11,8.8z"/>
			</g>
			<path id="形状结合_81_" class="st2" d="M8.8,9.7C7,9.7,5.5,8.2,5.5,6.4S6.9,3,8.8,3S12,4.5,12,6.3S10.6,9.7,8.8,9.7z M5.5,11     H12c1.1,0,2,0.9,2,2v0.5c0,0.8-0.7,1.5-1.5,1.5H5c-0.8,0-1.5-0.7-1.5-1.5V13C3.5,11.9,4.4,11,5.5,11z"/>
		</g>
	</g>
</g>
<g id="_x32_-2" transform="translate(42.000000, 603.000000)">
	<g id="编组_49_" transform="translate(3.000000, 3.000000)">
		<path id="矩形_54_" class="st29" d="M3,0h24c1.7,0,3,1.3,3,3v24c0,1.7-1.3,3-3,3H3c-1.7,0-3-1.3-3-3V3C0,1.3,1.3,0,3,0z"/>
	</g>
	<g id="编组-3_8_" transform="translate(7.500000, 9.000000)">
		<path id="形状结合_82_" class="st2" d="M13.3,9.7c-1.8,0-3.3-1.5-3.3-3.3S11.4,3,13.3,3s3.3,1.5,3.3,3.3S15.1,9.7,13.3,9.7z     M10,11h6.5c1.1,0,2,0.9,2,2v0.5c0,0.8-0.7,1.5-1.5,1.5H9.5C8.7,15,8,14.3,8,13.5V13C8,11.9,8.9,11,10,11z"/>
		<g id="编组-2_18_">
			<path id="形状_5_" class="st29" d="M5.7,11H5.5c-1.1,0-2,0.9-2,2v0.5C3.5,14.3,4.2,15,5,15h7.5c0.8,0,1.5-0.7,1.5-1.5V13     c0-1.1-0.9-2-2-2h-0.2c-0.9,0.6-1.9,0.9-3,0.9S6.6,11.6,5.7,11z M3.2,6.3c0-3.1,2.5-5.6,5.5-5.6s5.5,2.5,5.5,5.6     c0,1-0.3,1.9-0.7,2.7c1.6,0.6,2.7,2.2,2.7,3.9v0.5c0,2.1-1.7,3.8-3.8,3.8H5c-2.1,0-3.8-1.7-3.8-3.8V13c0-1.8,1.1-3.3,2.7-3.9     C3.5,8.2,3.2,7.3,3.2,6.3z M11,8.8c0.6-0.6,1-1.5,1-2.4C12,4.5,10.6,3,8.8,3S5.5,4.5,5.5,6.3c0,1,0.4,1.8,1,2.4L11,8.8L11,8.8z"/>
		</g>
		<path id="形状结合_83_" class="st2" d="M8.8,9.7C7,9.7,5.5,8.2,5.5,6.4S6.9,3,8.8,3S12,4.5,12,6.3S10.6,9.7,8.8,9.7z M5.5,11    H12c1.1,0,2,0.9,2,2v0.5c0,0.8-0.7,1.5-1.5,1.5H5c-0.8,0-1.5-0.7-1.5-1.5V13C3.5,11.9,4.4,11,5.5,11z"/>
	</g>
</g>
<g id="_x32_-zip_3_" transform="translate(42.000000, 522.000000)">
	<g id="编组_50_" transform="translate(4.500000, 3.000000)">
		<path id="形状结合_84_" class="st22" d="M1.5,0h24C26.3,0,27,0.7,27,1.5v27c0,0.8-0.7,1.5-1.5,1.5h-24C0.7,30,0,29.3,0,28.5    v-27C0,0.7,0.7,0,1.5,0z"/>
		<path id="形状结合_85_" class="st2" d="M9,0h4.5v3H9V0z M9,6h4.5v3H9V6z M9,12h4.5v3H9V12z M13.5,3H18v3h-4.5V3z M13.5,9H18v3    h-4.5V9z"/>
		<path id="形状结合_86_" class="st23" d="M0,15h13.5v15h-12C0.7,30,0,29.3,0,28.5V15z"/>
		<path id="形状结合备份_3_" class="st0" d="M27,15H13.5v15h12c0.8,0,1.5-0.7,1.5-1.5V15z"/>
		<rect id="矩形_55_" y="15" class="st24" width="27" height="6"/>
		<path id="矩形_56_" class="st2" d="M9.8,13.5h7.5c1.2,0,2.3,1,2.3,2.3v4.5c0,1.2-1,2.3-2.3,2.3H9.8c-1.2,0-2.3-1-2.3-2.3v-4.5    C7.5,14.5,8.5,13.5,9.8,13.5z M10.5,16.5v3h6v-3H10.5z"/>
	</g>
</g>
<g id="_x32_-id" transform="translate(42.000000, 122.000000)">
	<g id="编组_51_" transform="translate(4.500000, 3.000000)">
		<path id="形状结合_87_" class="st33" d="M1.5,30h18l7.5-7.5v-21C27,0.7,26.3,0,25.5,0h-24C0.7,0,0,0.7,0,1.5v27    C0,29.3,0.7,30,1.5,30z"/>
		<path id="矩形_57_" class="st34" d="M19.5,30l7.5-7.5h-6c-0.8,0-1.5,0.7-1.5,1.5V30z"/>
	</g>
	<path id="形状结合_88_" class="st2" d="M12,11.6c0-0.6,0.5-1.1,1.1-1.1s1.1,0.5,1.1,1.1v10.9c0,0.6-0.5,1.1-1.1,1.1   S12,23.1,12,22.5V11.6z M21.8,21.4v-4.3v-0.9h-1.1l0,0l0,0c-1.4,0-2.6,1.2-2.6,2.6s1.2,2.6,2.6,2.6l0,0l0,0H21.8z M24.1,22.5   c0,0.6-0.5,1.1-1.1,1.1h-2.3l0,0l0,0c-2.7,0-4.9-2.2-4.9-4.9s2.2-4.9,4.9-4.9l0,0l0,0h1.1v-2.3c0-0.6,0.5-1.1,1.1-1.1   s1.1,0.5,1.1,1.1v5.4L24.1,22.5L24.1,22.5z"/>
</g>
<g id="_x32_-cad_1_" transform="translate(42.000000, 162.000000)">
	<g id="编组_52_" transform="translate(4.500000, 3.000000)">
		<path id="形状结合_89_" class="st25" d="M1.5,30h18l7.5-7.5v-21C27,0.7,26.3,0,25.5,0h-24C0.7,0,0,0.7,0,1.5v27    C0,29.3,0.7,30,1.5,30z"/>
		<path id="矩形_58_" class="st26" d="M19.5,30l7.5-7.5h-6c-0.8,0-1.5,0.7-1.5,1.5V30z"/>
	</g>
	
		<g id="编组-2_19_" transform="translate(17.250000, 18.000000) scale(-1, 1) rotate(-180.000000) translate(-17.250000, -18.000000) translate(9.000000, 10.500000)">
		<g id="编组-4_1_" transform="translate(0.951923, 0.988636)">
			<g id="编组-3_9_" transform="translate(0.000000, 0.000000)">
				<path id="直线-6_1_" class="st2" d="M5.6,1v11.2c0,0.6,0.5,1,1,1s1-0.5,1-1V1c0-0.6-0.5-1-1-1S5.6,0.5,5.6,1z"/>
				<path id="直线_1_" class="st2" d="M1,9h12.6c0.6,0,1-0.5,1-1s-0.5-1-1-1H1C0.4,7,0,7.5,0,8S0.5,9,1,9z"/>
				<path id="矩形_59_" class="st2" d="M3.6,6.9c0-1.1,0.9-2,2-2h2c1.1,0,2,0.9,2,2v2c0,1.1-0.9,2-2,2h-2c-1.1,0-2-0.9-2-2      L3.6,6.9z M5.6,6.9v2h2v-2L5.6,6.9z"/>
			</g>
			<polygon id="矩形_60_" class="st27" points="5.6,9 7.6,9 7.6,9    "/>
		</g>
	</g>
</g>
<g id="_x32_-Maya_1_" transform="translate(42.000000, 202.000000)">
	<g id="编组_53_" transform="translate(4.500000, 3.000000)">
		<path id="形状结合_90_" class="st9" d="M1.5,30h18l7.5-7.5v-21C27,0.7,26.3,0,25.5,0h-24C0.7,0,0,0.7,0,1.5v27    C0,29.3,0.7,30,1.5,30z"/>
		<path id="矩形_61_" class="st10" d="M19.5,30l7.5-7.5h-6c-0.8,0-1.5,0.7-1.5,1.5V30z"/>
	</g>
	<g id="编组-2_20_" transform="translate(10.500000, 10.500000)">
		<path id="路径-6_1_" class="st13" d="M9.7,14.3C9,15,7.8,14.6,7.8,13.6V5.5c0-0.3,0.2-0.7,0.4-0.8l4.1-2.8    C13.1,1.4,14.1,2,14,2.8l-0.7,6.8c0,0.2-0.1,0.4-0.2,0.6L9.7,14.3z M9.9,10.8l1.4-1.7l0.4-4.3L9.9,6V10.8z"/>
		<path id="路径-12_1_" class="st13" d="M9.1,5L2.3,3.1C1.6,2.9,1,3.5,1,4.2l0.6,7.4c0,0.4,0.3,0.8,0.7,0.9l6.2,2.1    c0.7,0.2,1.4-0.3,1.4-1V6C9.9,5.5,9.6,5.1,9.1,5z M7.8,6.8v5.4l-4.2-1.5L3.2,5.5L7.8,6.8z"/>
		<path id="路径-13_1_" class="st13" d="M9.5,6.8l4.1-3.3C14.3,3,14,1.9,13.2,1.7L7.1,0.4c-0.2-0.1-0.5,0-0.7,0.1L1.5,3.2    C0.7,3.6,0.9,4.8,1.8,5.1L8.6,7C8.9,7.1,9.2,7,9.5,6.8z M4.7,3.8L7,2.4l3.6,0.8l-2,1.6L4.7,3.8z"/>
	</g>
</g>
<g id="_x32_-ppt_1_" transform="translate(162.000000, 82.000000)">
	<g id="编组_54_" transform="translate(4.500000, 3.000000)">
		<path id="形状结合_91_" class="st31" d="M1.5,30h18l7.5-7.5v-21C27,0.7,26.3,0,25.5,0h-24C0.7,0,0,0.7,0,1.5v27    C0,29.3,0.7,30,1.5,30z"/>
		<path id="矩形_62_" class="st32" d="M19.5,30l7.5-7.5h-6c-0.8,0-1.5,0.7-1.5,1.5V30z"/>
		<path id="路径-2_2_" class="st2" d="M10.1,16.1H15c2.3,0,4.1-1.8,4.1-4.1S17.3,7.9,15,7.9H9C8.4,7.9,7.9,8.4,7.9,9    s0.5,1.1,1.1,1.1h6c1,0,1.9,0.8,1.9,1.9S16,13.9,15,13.9H9c-0.6,0-1.1,0.5-1.1,1.1v4.5c0,0.6,0.5,1.1,1.1,1.1s1.1-0.5,1.1-1.1    V16.1z"/>
	</g>
</g>
<g id="_x32_-文本_3_" transform="translate(162.000000, 242.000000)">
	<g id="编组_55_" transform="translate(4.500000, 3.000000)">
		<path id="形状结合_92_" class="st7" d="M1.5,30h18l7.5-7.5v-21C27,0.7,26.3,0,25.5,0h-24C0.7,0,0,0.7,0,1.5v27    C0,29.3,0.7,30,1.5,30z"/>
		<path id="矩形_63_" class="st8" d="M19.5,30l7.5-7.5h-6c-0.8,0-1.5,0.7-1.5,1.5V30z"/>
		<path id="形状结合_93_" class="st2" d="M7.1,12.4c-0.6,0-1.1-0.5-1.1-1.1s0.5-1.1,1.1-1.1h12.8c0.6,0,1.1,0.5,1.1,1.1    s-0.5,1.1-1.1,1.1H7.1z M7.1,18.8c-0.6,0-1.1-0.5-1.1-1.1s0.5-1.1,1.1-1.1h7.1c0.6,0,1.1,0.5,1.1,1.1s-0.5,1.1-1.1,1.1H7.1z"/>
	</g>
</g>
<g id="_x32_-html_3_" transform="translate(162.000000, 282.000000)">
	<g id="编组_56_" transform="translate(4.500000, 3.000000)">
		<path id="形状结合_94_" class="st9" d="M1.5,30h18l7.5-7.5v-21C27,0.7,26.3,0,25.5,0h-24C0.7,0,0,0.7,0,1.5v27    C0,29.3,0.7,30,1.5,30z"/>
		<path id="矩形_64_" class="st10" d="M19.5,30l7.5-7.5h-6c-0.8,0-1.5,0.7-1.5,1.5V30z"/>
	</g>
	<g id="编组-2_21_" transform="translate(10.500000, 13.500000)">
		<path id="形状结合_95_" class="st2" d="M7.1,0.9c0.1-0.6,0.7-1,1.3-0.9s1,0.7,0.9,1.3L8.1,8.2C8,8.8,7.4,9.3,6.8,9.1    C6.2,9,5.7,8.4,5.9,7.8L7.1,0.9z M12.2,4.8l-2.1-2.1c-0.4-0.4-0.4-1.2,0-1.6s1.2-0.4,1.6,0L14.6,4c0.4,0.4,0.4,1.2,0,1.6l-2.9,2.9    c-0.4,0.4-1.2,0.4-1.6,0s-0.4-1.2,0-1.6L12.2,4.8z M2.8,4.8l2.1,2.1c0.4,0.4,0.4,1.2,0,1.6s-1.2,0.4-1.6,0l-3-2.9    c-0.4-0.4-0.4-1.2,0-1.6l3-3c0.4-0.4,1.2-0.4,1.6,0s0.4,1.2,0,1.6L2.8,4.8z"/>
	</g>
</g>
<g id="_x32_-image_4_" transform="translate(162.000000, 322.000000)">
	<g id="编组_57_" transform="translate(4.500000, 3.000000)">
		<path id="形状结合_96_" class="st7" d="M1.5,30h18l7.5-7.5v-21C27,0.7,26.3,0,25.5,0h-24C0.7,0,0,0.7,0,1.5v27    C0,29.3,0.7,30,1.5,30z"/>
		<path id="矩形_65_" class="st8" d="M19.5,30l7.5-7.5h-6c-0.8,0-1.5,0.7-1.5,1.5V30z"/>
	</g>
	<path id="形状结合_97_" class="st2" d="M22,15c-0.8,0-1.5-0.7-1.5-1.5S21.2,12,22,12s1.5,0.7,1.5,1.5S22.9,15,22,15z    M23.4,22.4l-7.5-4.1l-3.1,3.8c-0.4,0.5-1.1,0.5-1.6,0.2c-0.5-0.4-0.5-1.1-0.2-1.6l3.7-4.5c0.3-0.4,0.9-0.5,1.4-0.3l8.3,4.5   c0.5,0.3,0.7,1,0.5,1.5C24.6,22.5,23.9,22.7,23.4,22.4z"/>
</g>
<g id="_x32_-ai_3_" transform="translate(162.000000, 362.000000)">
	<g id="编组_58_" transform="translate(4.500000, 3.000000)">
		<path id="形状结合_98_" class="st11" d="M1.5,30h18l7.5-7.5v-21C27,0.7,26.3,0,25.5,0h-24C0.7,0,0,0.7,0,1.5v27    C0,29.3,0.7,30,1.5,30z"/>
		<path id="矩形_66_" class="st12" d="M19.5,30l7.5-7.5h-6c-0.8,0-1.5,0.7-1.5,1.5V30z"/>
	</g>
	<path id="形状结合_99_" class="st2" d="M22.5,21.1v-6.5c0-0.6,0.5-1.1,1.1-1.1s1.1,0.5,1.1,1.1v6.5v1c0,0.6-0.5,1.1-1.1,1.1   s-1.1-0.5-1.1-1.1V21.1z M14.8,18.7h2l-0.9-3.1L14.8,18.7z M17.4,21H14l-0.5,1.4c-0.2,0.6-0.9,0.9-1.5,0.8c-0.6-0.2-1-0.8-0.8-1.4   l3.4-10.5c0.3-1.1,2-1.1,2.3,0l3.2,10.5c0.2,0.6-0.2,1.2-0.8,1.4S18,23,17.8,22.4L17.4,21z M23.6,12.8c-0.6,0-1.1-0.5-1.1-1.1   s0.5-1.1,1.1-1.1s1.1,0.5,1.1,1.1S24.2,12.8,23.6,12.8z"/>
</g>
<g id="_x32_-相机照片_4_" transform="translate(162.000000, 402.000000)">
	<g id="编组_59_" transform="translate(4.500000, 3.000000)">
		<path id="形状结合_100_" class="st9" d="M1.5,30h18l7.5-7.5v-21C27,0.7,26.3,0,25.5,0h-24C0.7,0,0,0.7,0,1.5v27    C0,29.3,0.7,30,1.5,30z"/>
		<path id="矩形_67_" class="st10" d="M19.5,30l7.5-7.5h-6c-0.8,0-1.5,0.7-1.5,1.5V30z"/>
	</g>
	
		<g id="编组-2_22_" transform="translate(18.000000, 17.250000) rotate(-180.000000) translate(-18.000000, -17.250000) translate(11.250000, 10.500000)">
		<path id="形状结合_101_" class="st13" d="M3.5,0H10c2,0,3.5,1.6,3.5,3.5V10c0,2-1.6,3.5-3.5,3.5H3.5c-2,0-3.5-1.6-3.5-3.5V3.5    C0,1.6,1.6,0,3.5,0z M3.5,1.9c-0.9,0-1.6,0.7-1.6,1.6V10c0,0.9,0.7,1.6,1.6,1.6H10c0.9,0,1.6-0.7,1.6-1.6V3.5    c0-0.9-0.7-1.6-1.6-1.6H3.5z M6.8,3.5C8.5,3.5,10,5,10,6.8S8.5,10,6.8,10S3.5,8.5,3.5,6.8S5,3.5,6.8,3.5z M6.8,5.5    C6,5.5,5.5,6,5.5,6.8S6,8,6.8,8S8,7.5,8,6.8S7.5,5.5,6.8,5.5z"/>
		<circle id="椭圆形_11_" class="st2" cx="3.5" cy="10.1" r="1"/>
	</g>
</g>
<g id="_x32_-视频_5_" transform="translate(162.000000, 442.000000)">
	<g id="编组_60_" transform="translate(4.500000, 3.000000)">
		<path id="形状结合_102_" class="st14" d="M1.5,30h18l7.5-7.5v-21C27,0.7,26.3,0,25.5,0h-24C0.7,0,0,0.7,0,1.5v27    C0,29.3,0.7,30,1.5,30z"/>
		<path id="矩形_68_" class="st15" d="M19.5,30l7.5-7.5h-6c-0.8,0-1.5,0.7-1.5,1.5V30z"/>
	</g>
	
		<g id="编组-2_23_" transform="translate(18.000000, 17.250000) rotate(-90.000000) translate(-18.000000, -17.250000) translate(9.750000, 9.000000)">
		<path id="形状结合_103_" class="st2" d="M8.3,15.1c-3.8,0-6.8-3-6.8-6.8s3-6.8,6.8-6.8s6.8,3,6.8,6.8c0,1-0.2,1.9-0.6,2.8    c-0.3,0.7-0.8,1.4-1.3,2c-0.4,0.4-1.1,0.5-1.6,0c-0.4-0.4-0.5-1.1,0-1.6c0.4-0.4,0.7-0.8,0.9-1.3c0.3-0.6,0.4-1.2,0.4-1.8    c0-2.5-2-4.6-4.6-4.6s-4.6,2-4.6,4.6s2,4.6,4.6,4.6c0.6,0,1.1,0.5,1.1,1.1S8.9,15.1,8.3,15.1z M7.7,10L6.6,7.9    c-0.2-0.4,0-0.8,0.4-1c0.1-0.1,0.2-0.1,0.4-0.1h1.8c0.4,0,0.8,0.4,0.8,0.8c0,0.1,0,0.2-0.1,0.4l-1.1,2c-0.2,0.3-0.6,0.5-0.9,0.3    C7.8,10.3,7.7,10.2,7.7,10z"/>
	</g>
</g>
<g id="_x32_-音乐_5_" transform="translate(162.000000, 482.000000)">
	<g id="编组_61_" transform="translate(4.500000, 3.000000)">
		<path id="形状结合_104_" class="st16" d="M1.5,30h18l7.5-7.5v-21C27,0.7,26.3,0,25.5,0h-24C0.7,0,0,0.7,0,1.5v27    C0,29.3,0.7,30,1.5,30z"/>
		<path id="矩形_69_" class="st17" d="M19.5,30l7.5-7.5h-6c-0.8,0-1.5,0.7-1.5,1.5V30z"/>
	</g>
	<g id="编组-3_10_" transform="translate(12.000000, 9.750000)">
		<path id="椭圆形_12_" class="st2" d="M9.7,10.2c0-2.7-2.2-4.9-4.9-4.9S0,7.5,0,10.2s2.2,4.9,4.9,4.9c0.8,0,1.6-0.2,2.2-0.5    s0.8-1,0.5-1.5c-0.3-0.6-1-0.8-1.5-0.5c-0.4,0.2-0.8,0.3-1.2,0.3c-1.4,0-2.6-1.2-2.6-2.6s1.2-2.6,2.6-2.6s2.6,1.2,2.6,2.6    c0,0.6,0.5,1.1,1.1,1.1C9.2,11.3,9.7,10.8,9.7,10.2z"/>
		<path id="直线-7_5_" class="st2" d="M9.7,9.1L7.5,0.8C7.3,0.2,6.7-0.1,6.1,0s-1,0.8-0.8,1.4l2.3,8.3c0.2,0.6,0.8,1,1.4,0.8    C9.5,10.4,9.9,9.7,9.7,9.1z"/>
		<path id="直线-8_5_" class="st2" d="M6,2.2l4.5,1.6c0.6,0.2,1.2-0.1,1.4-0.7s-0.1-1.2-0.7-1.4L6.7,0.1C6.2-0.1,5.5,0.2,5.3,0.8    S5.4,2,6,2.2z"/>
	</g>
</g>
<g id="_x32_-flash" transform="translate(162.000000, 562.000000)">
	<g id="编组_62_" transform="translate(4.500000, 3.000000)">
		<path id="形状结合_105_" class="st0" d="M1.5,30h18l7.5-7.5v-21C27,0.7,26.3,0,25.5,0h-24C0.7,0,0,0.7,0,1.5v27    C0,29.3,0.7,30,1.5,30z"/>
		<path id="矩形_70_" class="st1" d="M19.5,30l7.5-7.5h-6c-0.8,0-1.5,0.7-1.5,1.5V30z"/>
	</g>
	<g id="编组-6" transform="translate(10.875000, 10.875000)">
		<path id="形状结合_106_" class="st2" d="M8.9,6.1h2c0.6,0,1.1,0.5,1.1,1.1s-0.5,1.1-1.1,1.1H8.1c-1.2,3.2-3.4,5.2-6.5,5.6    C1,14,0.4,13.6,0.3,13c-0.1-0.6,0.3-1.2,0.9-1.3c2.5-0.4,4.1-2,5-5.2c1.1-4,3.3-6.1,6.4-6.3c0.6,0,1.1,0.5,1.2,1.1    s-0.5,1.1-1.1,1.2C11.1,2.7,9.8,3.8,8.9,6.1z"/>
	</g>
</g>
<g id="_x32_-4" transform="translate(162.000000, 642.000000)">
	<g id="编组_63_" transform="translate(3.000000, 3.000000)">
		<path id="路径_5_" class="st35" d="M0,27V1.5C0,0.7,0.7,0,1.5,0h9.9c0.4,0,0.8,0.2,1.1,0.4l2.1,2.1c0.2,0.3,0.6,0.5,1,0.5h12.9    C29.3,3,30,3.7,30,4.5V27c0,0.8-0.7,1.5-1.5,1.5h-27C0.7,28.5,0,27.8,0,27z"/>
		<path id="矩形_71_" class="st23" d="M1.5,6h27C29.3,6,30,6.7,30,7.5V27c0,0.8-0.7,1.5-1.5,1.5h-27C0.7,28.5,0,27.8,0,27V7.5    C0,6.7,0.7,6,1.5,6z"/>
	</g>
	<g id="编组-2_24_" transform="translate(10.500000, 13.500000)">
		<circle id="椭圆形_13_" class="st2" cx="7.5" cy="2" r="2"/>
		<circle id="椭圆形备份_2_" class="st2" cx="7.5" cy="10.2" r="2"/>
		<circle id="椭圆形备份-2_2_" class="st2" cx="13" cy="10.2" r="2"/>
		<circle id="椭圆形备份-3_2_" class="st2" cx="2" cy="10.2" r="2"/>
		<path id="路径-33_2_" class="st2" d="M12.1,7v1.9c0,0.5,0.4,0.8,0.8,0.8c0.5,0,0.8-0.4,0.8-0.8v-2c0-0.8-0.7-1.5-1.5-1.5H2.7    C1.9,5.3,1.2,6,1.2,6.8v2c0,0.5,0.4,0.8,0.8,0.8s0.8-0.4,0.8-0.8V7H12.1z"/>
		<polygon id="直线-11_2_" class="st2" points="6.7,1.2 6.7,11 8.3,11 8.3,1.2   "/>
	</g>
</g>
<g id="_x32_-zip_4_" transform="translate(162.000000, 522.000000)">
	<g id="编组_64_" transform="translate(4.500000, 3.000000)">
		<path id="形状结合_107_" class="st22" d="M1.5,0h24C26.3,0,27,0.7,27,1.5v27c0,0.8-0.7,1.5-1.5,1.5h-24C0.7,30,0,29.3,0,28.5    v-27C0,0.7,0.7,0,1.5,0z"/>
		<path id="形状结合_108_" class="st2" d="M9,0h4.5v3H9V0z M9,6h4.5v3H9V6z M9,12h4.5v3H9V12z M13.5,3H18v3h-4.5V3z M13.5,9H18    v3h-4.5V9z"/>
		<path id="形状结合_109_" class="st23" d="M0,15h13.5v15h-12C0.7,30,0,29.3,0,28.5V15z"/>
		<path id="形状结合备份_4_" class="st0" d="M27,15H13.5v15h12c0.8,0,1.5-0.7,1.5-1.5V15z"/>
		<rect id="矩形_72_" y="15" class="st24" width="27" height="6"/>
		<path id="矩形_73_" class="st2" d="M9.8,13.5h7.5c1.2,0,2.3,1,2.3,2.3v4.5c0,1.2-1,2.3-2.3,2.3H9.8c-1.2,0-2.3-1-2.3-2.3v-4.5    C7.5,14.5,8.5,13.5,9.8,13.5z M10.5,16.5v3h6v-3H10.5z"/>
	</g>
</g>
<g id="_x32_-视频_6_" transform="translate(282.000000, 442.000000)">
	<g id="编组_65_" transform="translate(4.500000, 3.000000)">
		<path id="形状结合_110_" class="st14" d="M1.5,30h18l7.5-7.5v-21C27,0.7,26.3,0,25.5,0h-24C0.7,0,0,0.7,0,1.5v27    C0,29.3,0.7,30,1.5,30z"/>
		<path id="矩形_74_" class="st15" d="M19.5,30l7.5-7.5h-6c-0.8,0-1.5,0.7-1.5,1.5V30z"/>
	</g>
	
		<g id="编组-2_25_" transform="translate(18.000000, 17.250000) rotate(-90.000000) translate(-18.000000, -17.250000) translate(9.750000, 9.000000)">
		<path id="形状结合_111_" class="st2" d="M8.3,15.1c-3.8,0-6.8-3-6.8-6.8s3-6.8,6.8-6.8s6.8,3,6.8,6.8c0,1-0.2,1.9-0.6,2.8    c-0.3,0.7-0.8,1.4-1.3,2c-0.4,0.4-1.1,0.5-1.6,0c-0.4-0.4-0.5-1.1,0-1.6c0.4-0.4,0.7-0.8,0.9-1.3c0.3-0.6,0.4-1.2,0.4-1.8    c0-2.5-2-4.6-4.6-4.6s-4.6,2-4.6,4.6s2,4.6,4.6,4.6c0.6,0,1.1,0.5,1.1,1.1S8.9,15.1,8.3,15.1z M7.7,10L6.6,7.9    c-0.2-0.4,0-0.8,0.4-1c0.1-0.1,0.2-0.1,0.4-0.1h1.8c0.4,0,0.8,0.4,0.8,0.8c0,0.1,0,0.2-0.1,0.4l-1.1,2c-0.2,0.3-0.6,0.5-0.9,0.3    C7.8,10.3,7.7,10.2,7.7,10z"/>
	</g>
</g>
<g id="_x32_-音乐_6_" transform="translate(282.000000, 482.000000)">
	<g id="编组_66_" transform="translate(4.500000, 3.000000)">
		<path id="形状结合_112_" class="st16" d="M1.5,30h18l7.5-7.5v-21C27,0.7,26.3,0,25.5,0h-24C0.7,0,0,0.7,0,1.5v27    C0,29.3,0.7,30,1.5,30z"/>
		<path id="矩形_75_" class="st17" d="M19.5,30l7.5-7.5h-6c-0.8,0-1.5,0.7-1.5,1.5V30z"/>
	</g>
	<g id="编组-3_11_" transform="translate(12.000000, 9.750000)">
		<path id="椭圆形_14_" class="st2" d="M9.7,10.2c0-2.7-2.2-4.9-4.9-4.9S0,7.5,0,10.2s2.2,4.9,4.9,4.9c0.8,0,1.6-0.2,2.2-0.5    s0.8-1,0.5-1.5c-0.3-0.6-1-0.8-1.5-0.5c-0.4,0.2-0.8,0.3-1.2,0.3c-1.4,0-2.6-1.2-2.6-2.6s1.2-2.6,2.6-2.6s2.6,1.2,2.6,2.6    c0,0.6,0.5,1.1,1.1,1.1C9.2,11.3,9.7,10.8,9.7,10.2z"/>
		<path id="直线-7_6_" class="st2" d="M9.7,9.1L7.5,0.8C7.3,0.2,6.7-0.1,6.1,0s-1,0.8-0.8,1.4l2.3,8.3c0.2,0.6,0.8,1,1.4,0.8    C9.5,10.4,9.9,9.7,9.7,9.1z"/>
		<path id="直线-8_6_" class="st2" d="M6,2.2l4.5,1.6c0.6,0.2,1.2-0.1,1.4-0.7s-0.1-1.2-0.7-1.4L6.7,0.1C6.2-0.1,5.5,0.2,5.3,0.8    S5.4,2,6,2.2z"/>
	</g>
</g>
<g id="_x32_-sai" transform="translate(282.000000, 562.000000)">
	<g id="编组_67_" transform="translate(4.500000, 3.000000)">
		<path id="形状结合_113_" class="st36" d="M1.5,30h18l7.5-7.5v-21C27,0.7,26.3,0,25.5,0h-24C0.7,0,0,0.7,0,1.5v27    C0,29.3,0.7,30,1.5,30z"/>
		<path id="矩形_76_" class="st37" d="M19.5,30l7.5-7.5h-6c-0.8,0-1.5,0.7-1.5,1.5V30z"/>
	</g>
	<path id="形状结合_114_" class="st2" d="M13.9,20.9c-0.7-0.8-1.2-1.9-1.2-3h4.2L13.9,20.9z M14.4,21.4l2.9-2.9v4.1   C16.2,22.5,15.2,22.1,14.4,21.4z M21.4,14.4c0.7,0.8,1.1,1.7,1.2,2.8h-4L21.4,14.4z M20.9,13.9L18,16.7v-4.1   C19.1,12.7,20.1,13.2,20.9,13.9z M13.9,14.4l2.8,2.8h-4C12.8,16.1,13.2,15.1,13.9,14.4z M14.4,13.9c0.8-0.7,1.8-1.1,2.9-1.2v4.1   L14.4,13.9z M21.4,20.9l-3-3h4.2C22.5,19,22.1,20.1,21.4,20.9z M20.9,21.4c-0.8,0.7-1.8,1.1-2.9,1.2v-4.1L20.9,21.4z M17.6,24.8   c-3.9,0-7.1-3.2-7.1-7.1s3.2-7.1,7.1-7.1s7.1,3.2,7.1,7.1S21.6,24.8,17.6,24.8z M17.6,23.3c3.1,0,5.7-2.6,5.7-5.7s-2.6-5.7-5.7-5.7   s-5.7,2.6-5.7,5.7S14.5,23.3,17.6,23.3z"/>
</g>
<g id="_x32_-企业投件箱" transform="translate(282.000000, 642.000000)">
	<g id="编组备份" transform="translate(3.000000, 4.500000)">
		<path id="路径_6_" class="st28" d="M0,27V1.5C0,0.7,0.7,0,1.5,0h9.9c0.4,0,0.8,0.2,1.1,0.4l2.1,2.1c0.2,0.3,0.6,0.5,1,0.5h12.9    C29.3,3,30,3.7,30,4.5V27c0,0.8-0.7,1.5-1.5,1.5h-27C0.7,28.5,0,27.8,0,27z"/>
		<path id="矩形_77_" class="st29" d="M1.5,6h27C29.3,6,30,6.7,30,7.5V27c0,0.8-0.7,1.5-1.5,1.5h-27C0.7,28.5,0,27.8,0,27V7.5    C0,6.7,0.7,6,1.5,6z"/>
		<g id="编组_68_" transform="translate(7.500000, 12.000000)">
			<path id="矩形_78_" class="st2" d="M12.8,10.9H2.3C1,10.9,0,9.9,0,8.7V2.2C0,1,1,0,2.3,0h10.5C14,0,15,1,15,2.2v6.4     C15,9.9,14,10.9,12.8,10.9z"/>
			<path id="路径-23" class="st29" d="M7.5,4.5L3.9,2C3.5,1.8,3,1.9,2.7,2.3S2.6,3.2,3,3.4l4,2.7c0.3,0.2,0.6,0.2,0.9,0L12,3.4     c0.4-0.3,0.5-0.8,0.2-1.1C12,1.9,11.5,1.8,11.1,2L7.5,4.5z"/>
		</g>
	</g>
</g>
<g id="_x32_-企业文件夹" transform="translate(322.000000, 642.000000)">
	<g id="编组_69_" transform="translate(3.000000, 3.000000)">
		<path id="路径_7_" class="st28" d="M0,27V1.5C0,0.7,0.7,0,1.5,0h9.9c0.4,0,0.8,0.2,1.1,0.4l2.1,2.1c0.2,0.3,0.6,0.5,1,0.5h12.9    C29.3,3,30,3.7,30,4.5V27c0,0.8-0.7,1.5-1.5,1.5h-27C0.7,28.5,0,27.8,0,27z"/>
		<path id="矩形_79_" class="st29" d="M1.5,6h27C29.3,6,30,6.7,30,7.5V27c0,0.8-0.7,1.5-1.5,1.5h-27C0.7,28.5,0,27.8,0,27V7.5    C0,6.7,0.7,6,1.5,6z"/>
	</g>
</g>
<g id="_x32_-image_5_" transform="translate(242.000000, 322.000000)">
	<g id="编组_70_" transform="translate(4.500000, 3.000000)">
		<path id="形状结合_115_" class="st7" d="M1.5,30h18l7.5-7.5v-21C27,0.7,26.3,0,25.5,0h-24C0.7,0,0,0.7,0,1.5v27    C0,29.3,0.7,30,1.5,30z"/>
		<path id="矩形_80_" class="st8" d="M19.5,30l7.5-7.5h-6c-0.8,0-1.5,0.7-1.5,1.5V30z"/>
	</g>
	<path id="形状结合_116_" class="st2" d="M22,15c-0.8,0-1.5-0.7-1.5-1.5S21.2,12,22,12s1.5,0.7,1.5,1.5S22.9,15,22,15z    M23.4,22.4l-7.5-4.1l-3.1,3.8c-0.4,0.5-1.1,0.5-1.6,0.2c-0.5-0.4-0.5-1.1-0.2-1.6l3.7-4.5c0.3-0.4,0.9-0.5,1.4-0.3l8.3,4.5   c0.5,0.3,0.7,1,0.5,1.5C24.6,22.5,23.9,22.7,23.4,22.4z"/>
</g>
<g id="_x32_-相机照片_5_" transform="translate(242.000000, 402.000000)">
	<g id="编组_71_" transform="translate(4.500000, 3.000000)">
		<path id="形状结合_117_" class="st9" d="M1.5,30h18l7.5-7.5v-21C27,0.7,26.3,0,25.5,0h-24C0.7,0,0,0.7,0,1.5v27    C0,29.3,0.7,30,1.5,30z"/>
		<path id="矩形_81_" class="st10" d="M19.5,30l7.5-7.5h-6c-0.8,0-1.5,0.7-1.5,1.5V30z"/>
	</g>
	
		<g id="编组-2_26_" transform="translate(18.000000, 17.250000) rotate(-180.000000) translate(-18.000000, -17.250000) translate(11.250000, 10.500000)">
		<path id="形状结合_118_" class="st13" d="M3.5,0H10c2,0,3.5,1.6,3.5,3.5V10c0,2-1.6,3.5-3.5,3.5H3.5c-2,0-3.5-1.6-3.5-3.5V3.5    C0,1.6,1.6,0,3.5,0z M3.5,1.9c-0.9,0-1.6,0.7-1.6,1.6V10c0,0.9,0.7,1.6,1.6,1.6H10c0.9,0,1.6-0.7,1.6-1.6V3.5    c0-0.9-0.7-1.6-1.6-1.6H3.5z M6.8,3.5C8.5,3.5,10,5,10,6.8S8.5,10,6.8,10S3.5,8.5,3.5,6.8S5,3.5,6.8,3.5z M6.8,5.5    C6,5.5,5.5,6,5.5,6.8S6,8,6.8,8S8,7.5,8,6.8S7.5,5.5,6.8,5.5z"/>
		<circle id="椭圆形_15_" class="st2" cx="3.5" cy="10.1" r="1"/>
	</g>
</g>
<g id="_x32_-视频_7_" transform="translate(242.000000, 442.000000)">
	<g id="编组_72_" transform="translate(4.500000, 3.000000)">
		<path id="形状结合_119_" class="st14" d="M1.5,30h18l7.5-7.5v-21C27,0.7,26.3,0,25.5,0h-24C0.7,0,0,0.7,0,1.5v27    C0,29.3,0.7,30,1.5,30z"/>
		<path id="矩形_82_" class="st15" d="M19.5,30l7.5-7.5h-6c-0.8,0-1.5,0.7-1.5,1.5V30z"/>
	</g>
	
		<g id="编组-2_27_" transform="translate(18.000000, 17.250000) rotate(-90.000000) translate(-18.000000, -17.250000) translate(9.750000, 9.000000)">
		<path id="形状结合_120_" class="st2" d="M8.3,15.1c-3.8,0-6.8-3-6.8-6.8s3-6.8,6.8-6.8s6.8,3,6.8,6.8c0,1-0.2,1.9-0.6,2.8    c-0.3,0.7-0.8,1.4-1.3,2c-0.4,0.4-1.1,0.5-1.6,0c-0.4-0.4-0.5-1.1,0-1.6c0.4-0.4,0.7-0.8,0.9-1.3c0.3-0.6,0.4-1.2,0.4-1.8    c0-2.5-2-4.6-4.6-4.6s-4.6,2-4.6,4.6s2,4.6,4.6,4.6c0.6,0,1.1,0.5,1.1,1.1S8.9,15.1,8.3,15.1z M7.7,10L6.6,7.9    c-0.2-0.4,0-0.8,0.4-1c0.1-0.1,0.2-0.1,0.4-0.1h1.8c0.4,0,0.8,0.4,0.8,0.8c0,0.1,0,0.2-0.1,0.4l-1.1,2c-0.2,0.3-0.6,0.5-0.9,0.3    C7.8,10.3,7.7,10.2,7.7,10z"/>
	</g>
</g>
<g id="_x32_-音乐_7_" transform="translate(242.000000, 482.000000)">
	<g id="编组_73_" transform="translate(4.500000, 3.000000)">
		<path id="形状结合_121_" class="st16" d="M1.5,30h18l7.5-7.5v-21C27,0.7,26.3,0,25.5,0h-24C0.7,0,0,0.7,0,1.5v27    C0,29.3,0.7,30,1.5,30z"/>
		<path id="矩形_83_" class="st17" d="M19.5,30l7.5-7.5h-6c-0.8,0-1.5,0.7-1.5,1.5V30z"/>
	</g>
	<g id="编组-3_12_" transform="translate(12.000000, 9.750000)">
		<path id="椭圆形_16_" class="st2" d="M9.7,10.2c0-2.7-2.2-4.9-4.9-4.9S0,7.5,0,10.2s2.2,4.9,4.9,4.9c0.8,0,1.6-0.2,2.2-0.5    s0.8-1,0.5-1.5c-0.3-0.6-1-0.8-1.5-0.5c-0.4,0.2-0.8,0.3-1.2,0.3c-1.4,0-2.6-1.2-2.6-2.6s1.2-2.6,2.6-2.6s2.6,1.2,2.6,2.6    c0,0.6,0.5,1.1,1.1,1.1C9.2,11.3,9.7,10.8,9.7,10.2z"/>
		<path id="直线-7_7_" class="st2" d="M9.7,9.1L7.5,0.8C7.3,0.2,6.7-0.1,6.1,0s-1,0.8-0.8,1.4l2.3,8.3c0.2,0.6,0.8,1,1.4,0.8    C9.5,10.4,9.9,9.7,9.7,9.1z"/>
		<path id="直线-8_7_" class="st2" d="M6,2.2l4.5,1.6c0.6,0.2,1.2-0.1,1.4-0.7s-0.1-1.2-0.7-1.4L6.7,0.1C6.2-0.1,5.5,0.2,5.3,0.8    S5.4,2,6,2.2z"/>
	</g>
</g>
<g id="_x32_-painter" transform="translate(242.000000, 562.000000)">
	<g id="编组_74_" transform="translate(4.500000, 3.000000)">
		<path id="形状结合_122_" class="st38" d="M1.5,30h18l7.5-7.5v-21C27,0.7,26.3,0,25.5,0h-24C0.7,0,0,0.7,0,1.5v27    C0,29.3,0.7,30,1.5,30z"/>
		<path id="矩形_84_" class="st39" d="M19.5,30l7.5-7.5h-6c-0.8,0-1.5,0.7-1.5,1.5V30z"/>
	</g>
	<path id="形状结合_123_" class="st2" d="M18.6,17.4c0.2,0.4,0.2,0.9-0.1,1.4c-0.5,0.8-1.5,1.7-2.8,2.4h-0.1   c-0.1,0-0.2,0-0.3-0.1s-0.1-0.3-0.1-0.4c0.4-0.8,0.4-1.3,0.3-1.9c0-0.5-0.1-1,0.2-1.5c0.2-0.4,0.5-0.6,0.9-0.7c0.1,0,0.2,0,0.3-0.1   c-0.1-0.3,0-0.6,0.1-0.9c0,0,0,0,0-0.1l4.1-6.1C21.5,9,22,8.9,22.3,9.1c0.4,0.2,0.5,0.7,0.3,1.1l-3.3,6.6   C19.2,17.1,18.9,17.3,18.6,17.4z"/>
	<path id="路径_8_" class="st2" d="M21.6,14.9v6.7c0,0.1-0.1,0.3-0.3,0.3h-8.1c-0.1,0-0.3-0.1-0.3-0.3v-8.1c0-0.1,0.1-0.3,0.3-0.3   h4c0.6,0,1.1-0.5,1.1-1.1S17.8,11,17.2,11h-4c-1.3,0-2.4,1.1-2.4,2.4v8.1c0,1.3,1.1,2.4,2.4,2.4h8.1c1.3,0,2.4-1.1,2.4-2.4v-6.7   c0-0.6-0.5-1.1-1.1-1.1C22.1,13.8,21.6,14.3,21.6,14.9z"/>
</g>
<g id="_x32_-6" transform="translate(242.000000, 642.000000)">
	<g id="编组_75_" transform="translate(3.000000, 3.000000)">
		<path id="路径_9_" class="st4" d="M0,27V1.5C0,0.7,0.7,0,1.5,0h9.9c0.4,0,0.8,0.2,1.1,0.4l2.1,2.1c0.2,0.3,0.6,0.5,1,0.5h12.9    C29.3,3,30,3.7,30,4.5V27c0,0.8-0.7,1.5-1.5,1.5h-27C0.7,28.5,0,27.8,0,27z"/>
		<path id="矩形_85_" class="st18" d="M1.5,6h27C29.3,6,30,6.7,30,7.5V27c0,0.8-0.7,1.5-1.5,1.5h-27C0.7,28.5,0,27.8,0,27V7.5    C0,6.7,0.7,6,1.5,6z"/>
	</g>
	<g id="编组-2_28_" transform="translate(10.500000, 13.500000)">
		<circle id="椭圆形_17_" class="st2" cx="7.5" cy="2" r="2"/>
		<circle id="椭圆形备份_3_" class="st2" cx="7.5" cy="10.2" r="2"/>
		<circle id="椭圆形备份-2_3_" class="st2" cx="13" cy="10.2" r="2"/>
		<circle id="椭圆形备份-3_3_" class="st2" cx="2" cy="10.2" r="2"/>
		<path id="路径-33_3_" class="st2" d="M12.1,7v1.9c0,0.5,0.4,0.8,0.8,0.8c0.5,0,0.8-0.4,0.8-0.8v-2c0-0.8-0.7-1.5-1.5-1.5H2.7    C1.9,5.3,1.2,6,1.2,6.8v2c0,0.5,0.4,0.8,0.8,0.8s0.8-0.4,0.8-0.8V7H12.1z"/>
		<polygon id="直线-11_3_" class="st2" points="6.7,1.2 6.7,11 8.3,11 8.3,1.2   "/>
	</g>
</g>
<g id="_x32_-视频_8_" transform="translate(362.000000, 442.000000)">
	<g id="编组_76_" transform="translate(4.500000, 3.000000)">
		<path id="形状结合_124_" class="st14" d="M1.5,30h18l7.5-7.5v-21C27,0.7,26.3,0,25.5,0h-24C0.7,0,0,0.7,0,1.5v27    C0,29.3,0.7,30,1.5,30z"/>
		<path id="矩形_86_" class="st15" d="M19.5,30l7.5-7.5h-6c-0.8,0-1.5,0.7-1.5,1.5V30z"/>
	</g>
	
		<g id="编组-2_29_" transform="translate(18.000000, 17.250000) rotate(-90.000000) translate(-18.000000, -17.250000) translate(9.750000, 9.000000)">
		<path id="形状结合_125_" class="st2" d="M8.3,15.1c-3.8,0-6.8-3-6.8-6.8s3-6.8,6.8-6.8s6.8,3,6.8,6.8c0,1-0.2,1.9-0.6,2.8    c-0.3,0.7-0.8,1.4-1.3,2c-0.4,0.4-1.1,0.5-1.6,0c-0.4-0.4-0.5-1.1,0-1.6c0.4-0.4,0.7-0.8,0.9-1.3c0.3-0.6,0.4-1.2,0.4-1.8    c0-2.5-2-4.6-4.6-4.6s-4.6,2-4.6,4.6s2,4.6,4.6,4.6c0.6,0,1.1,0.5,1.1,1.1S8.9,15.1,8.3,15.1z M7.7,10L6.6,7.9    c-0.2-0.4,0-0.8,0.4-1c0.1-0.1,0.2-0.1,0.4-0.1h1.8c0.4,0,0.8,0.4,0.8,0.8c0,0.1,0,0.2-0.1,0.4l-1.1,2c-0.2,0.3-0.6,0.5-0.9,0.3    C7.8,10.3,7.7,10.2,7.7,10z"/>
	</g>
</g>
<g id="_x32_-音乐_8_" transform="translate(362.000000, 482.000000)">
	<g id="编组_77_" transform="translate(4.500000, 3.000000)">
		<path id="形状结合_126_" class="st16" d="M1.5,30h18l7.5-7.5v-21C27,0.7,26.3,0,25.5,0h-24C0.7,0,0,0.7,0,1.5v27    C0,29.3,0.7,30,1.5,30z"/>
		<path id="矩形_87_" class="st17" d="M19.5,30l7.5-7.5h-6c-0.8,0-1.5,0.7-1.5,1.5V30z"/>
	</g>
	<g id="编组-3_13_" transform="translate(12.000000, 9.750000)">
		<path id="椭圆形_18_" class="st2" d="M9.7,10.2c0-2.7-2.2-4.9-4.9-4.9S0,7.5,0,10.2s2.2,4.9,4.9,4.9c0.8,0,1.6-0.2,2.2-0.5    s0.8-1,0.5-1.5c-0.3-0.6-1-0.8-1.5-0.5c-0.4,0.2-0.8,0.3-1.2,0.3c-1.4,0-2.6-1.2-2.6-2.6s1.2-2.6,2.6-2.6s2.6,1.2,2.6,2.6    c0,0.6,0.5,1.1,1.1,1.1C9.2,11.3,9.7,10.8,9.7,10.2z"/>
		<path id="直线-7_8_" class="st2" d="M9.7,9.1L7.5,0.8C7.3,0.2,6.7-0.1,6.1,0s-1,0.8-0.8,1.4l2.3,8.3c0.2,0.6,0.8,1,1.4,0.8    C9.5,10.4,9.9,9.7,9.7,9.1z"/>
		<path id="直线-8_8_" class="st2" d="M6,2.2l4.5,1.6c0.6,0.2,1.2-0.1,1.4-0.7s-0.1-1.2-0.7-1.4L6.7,0.1C6.2-0.1,5.5,0.2,5.3,0.8    S5.4,2,6,2.2z"/>
	</g>
</g>
<g id="_x32_-eio" transform="translate(82.000000, 2.000000)">
	<g id="编组_78_" transform="translate(4.500000, 3.000000)">
		<path id="形状结合_127_" class="st9" d="M1.5,30h18l7.5-7.5v-21C27,0.7,26.3,0,25.5,0h-24C0.7,0,0,0.7,0,1.5v27    C0,29.3,0.7,30,1.5,30z"/>
		<path id="矩形_88_" class="st40" d="M19.5,30l7.5-7.5h-6c-0.8,0-1.5,0.7-1.5,1.5V30z"/>
		<path id="路径_10_" class="st2" d="M16.9,12.8v1.5c0,1.9-1.5,3.4-3.4,3.4s-3.4-1.5-3.4-3.4v-1.5c0-1.9,1.5-3.4,3.4-3.4    c0.9,0,1.7,0.3,2.3,0.9c0.5,0.4,1.2,0.4,1.6-0.1s0.4-1.2-0.1-1.6c-1-1-2.4-1.5-3.8-1.5c-3.1,0-5.6,2.5-5.6,5.6v1.5    c0,3.1,2.5,5.6,5.6,5.6s5.6-2.5,5.6-5.6v-1.5c0-0.6-0.5-1.1-1.1-1.1S16.9,12.1,16.9,12.8z"/>
	</g>
</g>
<g id="_x32_-exc" transform="translate(82.000000, 42.000000)">
	<g id="编组_79_" transform="translate(4.500000, 3.000000)">
		<path id="形状结合_128_" class="st23" d="M1.5,30h18l7.5-7.5v-21C27,0.7,26.3,0,25.5,0h-24C0.7,0,0,0.7,0,1.5v27    C0,29.3,0.7,30,1.5,30z"/>
		<path id="矩形_89_" class="st35" d="M19.5,30l7.5-7.5h-6c-0.8,0-1.5,0.7-1.5,1.5V30z"/>
		<path id="路径-3" class="st2" d="M18.8,9.8l-9,9c-0.4,0.4-1.2,0.4-1.6,0c-0.4-0.4-0.4-1.2,0-1.6l9-9c0.4-0.4,1.2-0.4,1.6,0    C19.2,8.6,19.2,9.4,18.8,9.8z"/>
		<path id="形状_6_" class="st2" d="M8.2,9.8c-0.4-0.4-0.4-1.2,0-1.6c0.4-0.4,1.2-0.4,1.6,0l4.5,4.5c0.4,0.4,0.4,1.2,0,1.6    s-1.2,0.4-1.6,0L8.2,9.8z M15,16.5c-0.4-0.4-0.4-1.2,0-1.6s1.2-0.4,1.6,0l2.3,2.2c0.4,0.4,0.4,1.2,0,1.6s-1.2,0.4-1.6,0L15,16.5z"/>
	</g>
</g>
<g id="_x32_-numbers" transform="translate(82.000000, 82.000000)">
	<g id="编组_80_" transform="translate(4.500000, 3.000000)">
		<path id="形状结合_129_" class="st41" d="M1.5,30h18l7.5-7.5v-21C27,0.7,26.3,0,25.5,0h-24C0.7,0,0,0.7,0,1.5v27    C0,29.3,0.7,30,1.5,30z"/>
		<path id="矩形_90_" class="st42" d="M19.5,30l7.5-7.5h-6c-0.8,0-1.5,0.7-1.5,1.5V30z"/>
	</g>
	<g id="编组-3_14_" transform="translate(9.000000, 10.500000)">
		<path id="形状结合_130_" class="st2" d="M3.9,11.1h9.4l-0.5-2.8c-0.1-0.7,0.3-1.3,0.9-1.4c0.6-0.1,1.2,0.3,1.3,1l0.7,4.2    c0.1,0.7-0.4,1.4-1.1,1.4h-12c0,0,0,0-0.1,0H2.4c-0.1,0-0.3,0-0.4-0.1c-0.2-0.1-0.3-0.2-0.4-0.3s-0.2-0.3-0.2-0.5    c0-0.1,0-0.3,0-0.4l0,0l0,0v-0.1l0.7-4.2c0.1-0.7,0.7-1.1,1.3-1c0.7,0.1,1.1,0.7,1,1.4L3.9,11.1z M7.1,8.4c0,0.7-0.5,1.2-1.2,1.2    S4.8,9,4.8,8.4V5.1c0-0.7,0.5-1.2,1.2-1.2s1.2,0.5,1.2,1.2L7.1,8.4L7.1,8.4z M9.8,8.4c0,0.7-0.5,1.2-1.2,1.2S7.5,9,7.5,8.4V1.9    c0-0.7,0.5-1.2,1.2-1.2s1.2,0.5,1.2,1.2L9.8,8.4L9.8,8.4z M12.5,8.4c0,0.7-0.5,1.2-1.2,1.2S10.2,9,10.2,8.4V3.1    c0-0.7,0.5-1.2,1.2-1.2s1.2,0.5,1.2,1.2L12.5,8.4L12.5,8.4z"/>
	</g>
</g>
<g id="_x32_-文本_4_" transform="translate(82.000000, 242.000000)">
	<g id="编组_81_" transform="translate(4.500000, 3.000000)">
		<path id="形状结合_131_" class="st7" d="M1.5,30h18l7.5-7.5v-21C27,0.7,26.3,0,25.5,0h-24C0.7,0,0,0.7,0,1.5v27    C0,29.3,0.7,30,1.5,30z"/>
		<path id="矩形_91_" class="st8" d="M19.5,30l7.5-7.5h-6c-0.8,0-1.5,0.7-1.5,1.5V30z"/>
		<path id="形状结合_132_" class="st2" d="M7.1,12.4c-0.6,0-1.1-0.5-1.1-1.1s0.5-1.1,1.1-1.1h12.8c0.6,0,1.1,0.5,1.1,1.1    s-0.5,1.1-1.1,1.1H7.1z M7.1,18.8c-0.6,0-1.1-0.5-1.1-1.1s0.5-1.1,1.1-1.1h7.1c0.6,0,1.1,0.5,1.1,1.1s-0.5,1.1-1.1,1.1H7.1z"/>
	</g>
</g>
<g id="_x32_-html_4_" transform="translate(82.000000, 282.000000)">
	<g id="编组_82_" transform="translate(4.500000, 3.000000)">
		<path id="形状结合_133_" class="st9" d="M1.5,30h18l7.5-7.5v-21C27,0.7,26.3,0,25.5,0h-24C0.7,0,0,0.7,0,1.5v27    C0,29.3,0.7,30,1.5,30z"/>
		<path id="矩形_92_" class="st10" d="M19.5,30l7.5-7.5h-6c-0.8,0-1.5,0.7-1.5,1.5V30z"/>
	</g>
	<g id="编组-2_30_" transform="translate(10.500000, 13.500000)">
		<path id="形状结合_134_" class="st2" d="M7.1,0.9c0.1-0.6,0.7-1,1.3-0.9s1,0.7,0.9,1.3L8.1,8.2C8,8.8,7.4,9.3,6.8,9.1    C6.2,9,5.7,8.4,5.9,7.8L7.1,0.9z M12.2,4.8l-2.1-2.1c-0.4-0.4-0.4-1.2,0-1.6s1.2-0.4,1.6,0L14.6,4c0.4,0.4,0.4,1.2,0,1.6l-2.9,2.9    c-0.4,0.4-1.2,0.4-1.6,0s-0.4-1.2,0-1.6L12.2,4.8z M2.8,4.8l2.1,2.1c0.4,0.4,0.4,1.2,0,1.6s-1.2,0.4-1.6,0l-3-2.9    c-0.4-0.4-0.4-1.2,0-1.6l3-3c0.4-0.4,1.2-0.4,1.6,0s0.4,1.2,0,1.6L2.8,4.8z"/>
	</g>
</g>
<g id="_x32_-音乐_9_" transform="translate(82.000000, 322.000000)">
	<g id="编组_83_" transform="translate(4.500000, 3.000000)">
		<path id="形状结合_135_" class="st16" d="M1.5,30h18l7.5-7.5v-21C27,0.7,26.3,0,25.5,0h-24C0.7,0,0,0.7,0,1.5v27    C0,29.3,0.7,30,1.5,30z"/>
		<path id="矩形_93_" class="st17" d="M19.5,30l7.5-7.5h-6c-0.8,0-1.5,0.7-1.5,1.5V30z"/>
	</g>
	<g id="编组-3_15_" transform="translate(12.000000, 9.750000)">
		<path id="椭圆形_19_" class="st2" d="M9.7,10.2c0-2.7-2.2-4.9-4.9-4.9S0,7.5,0,10.2s2.2,4.9,4.9,4.9c0.8,0,1.6-0.2,2.2-0.5    s0.8-1,0.5-1.5c-0.3-0.6-1-0.8-1.5-0.5c-0.4,0.2-0.8,0.3-1.2,0.3c-1.4,0-2.6-1.2-2.6-2.6s1.2-2.6,2.6-2.6s2.6,1.2,2.6,2.6    c0,0.6,0.5,1.1,1.1,1.1C9.2,11.3,9.7,10.8,9.7,10.2z"/>
		<path id="直线-7_9_" class="st2" d="M9.7,9.1L7.5,0.8C7.3,0.2,6.7-0.1,6.1,0s-1,0.8-0.8,1.4l2.3,8.3c0.2,0.6,0.8,1,1.4,0.8    C9.5,10.4,9.9,9.7,9.7,9.1z"/>
		<path id="直线-8_9_" class="st2" d="M6,2.2l4.5,1.6c0.6,0.2,1.2-0.1,1.4-0.7s-0.1-1.2-0.7-1.4L6.7,0.1C6.2-0.1,5.5,0.2,5.3,0.8    S5.4,2,6,2.2z"/>
	</g>
</g>
<g id="_x32_-ai_4_" transform="translate(82.000000, 362.000000)">
	<g id="编组_84_" transform="translate(4.500000, 3.000000)">
		<path id="形状结合_136_" class="st11" d="M1.5,30h18l7.5-7.5v-21C27,0.7,26.3,0,25.5,0h-24C0.7,0,0,0.7,0,1.5v27    C0,29.3,0.7,30,1.5,30z"/>
		<path id="矩形_94_" class="st12" d="M19.5,30l7.5-7.5h-6c-0.8,0-1.5,0.7-1.5,1.5V30z"/>
	</g>
	<path id="形状结合_137_" class="st2" d="M22.5,21.1v-6.5c0-0.6,0.5-1.1,1.1-1.1s1.1,0.5,1.1,1.1v6.5v1c0,0.6-0.5,1.1-1.1,1.1   s-1.1-0.5-1.1-1.1V21.1z M14.8,18.7h2l-0.9-3.1L14.8,18.7z M17.4,21H14l-0.5,1.4c-0.2,0.6-0.9,0.9-1.5,0.8c-0.6-0.2-1-0.8-0.8-1.4   l3.4-10.5c0.3-1.1,2-1.1,2.3,0l3.2,10.5c0.2,0.6-0.2,1.2-0.8,1.4S18,23,17.8,22.4L17.4,21z M23.6,12.8c-0.6,0-1.1-0.5-1.1-1.1   s0.5-1.1,1.1-1.1s1.1,0.5,1.1,1.1S24.2,12.8,23.6,12.8z"/>
</g>
<g id="_x32_-相机照片_6_" transform="translate(82.000000, 402.000000)">
	<g id="编组_85_" transform="translate(4.500000, 3.000000)">
		<path id="形状结合_138_" class="st9" d="M1.5,30h18l7.5-7.5v-21C27,0.7,26.3,0,25.5,0h-24C0.7,0,0,0.7,0,1.5v27    C0,29.3,0.7,30,1.5,30z"/>
		<path id="矩形_95_" class="st10" d="M19.5,30l7.5-7.5h-6c-0.8,0-1.5,0.7-1.5,1.5V30z"/>
	</g>
	
		<g id="编组-2_31_" transform="translate(18.000000, 17.250000) rotate(-180.000000) translate(-18.000000, -17.250000) translate(11.250000, 10.500000)">
		<path id="形状结合_139_" class="st13" d="M3.5,0H10c2,0,3.5,1.6,3.5,3.5V10c0,2-1.6,3.5-3.5,3.5H3.5c-2,0-3.5-1.6-3.5-3.5V3.5    C0,1.6,1.6,0,3.5,0z M3.5,1.9c-0.9,0-1.6,0.7-1.6,1.6V10c0,0.9,0.7,1.6,1.6,1.6H10c0.9,0,1.6-0.7,1.6-1.6V3.5    c0-0.9-0.7-1.6-1.6-1.6H3.5z M6.8,3.5C8.5,3.5,10,5,10,6.8S8.5,10,6.8,10S3.5,8.5,3.5,6.8S5,3.5,6.8,3.5z M6.8,5.5    C6,5.5,5.5,6,5.5,6.8S6,8,6.8,8S8,7.5,8,6.8S7.5,5.5,6.8,5.5z"/>
		<circle id="椭圆形_20_" class="st2" cx="3.5" cy="10.1" r="1"/>
	</g>
</g>
<g id="_x32_-视频_9_" transform="translate(82.000000, 442.000000)">
	<g id="编组_86_" transform="translate(4.500000, 3.000000)">
		<path id="形状结合_140_" class="st14" d="M1.5,30h18l7.5-7.5v-21C27,0.7,26.3,0,25.5,0h-24C0.7,0,0,0.7,0,1.5v27    C0,29.3,0.7,30,1.5,30z"/>
		<path id="矩形_96_" class="st15" d="M19.5,30l7.5-7.5h-6c-0.8,0-1.5,0.7-1.5,1.5V30z"/>
	</g>
	
		<g id="编组-2_32_" transform="translate(18.000000, 17.250000) rotate(-90.000000) translate(-18.000000, -17.250000) translate(9.750000, 9.000000)">
		<path id="形状结合_141_" class="st2" d="M8.3,15.1c-3.8,0-6.8-3-6.8-6.8s3-6.8,6.8-6.8s6.8,3,6.8,6.8c0,1-0.2,1.9-0.6,2.8    c-0.3,0.7-0.8,1.4-1.3,2c-0.4,0.4-1.1,0.5-1.6,0c-0.4-0.4-0.5-1.1,0-1.6c0.4-0.4,0.7-0.8,0.9-1.3c0.3-0.6,0.4-1.2,0.4-1.8    c0-2.5-2-4.6-4.6-4.6s-4.6,2-4.6,4.6s2,4.6,4.6,4.6c0.6,0,1.1,0.5,1.1,1.1S8.9,15.1,8.3,15.1z M7.7,10L6.6,7.9    c-0.2-0.4,0-0.8,0.4-1c0.1-0.1,0.2-0.1,0.4-0.1h1.8c0.4,0,0.8,0.4,0.8,0.8c0,0.1,0,0.2-0.1,0.4l-1.1,2c-0.2,0.3-0.6,0.5-0.9,0.3    C7.8,10.3,7.7,10.2,7.7,10z"/>
	</g>
</g>
<g id="_x32_-音乐_10_" transform="translate(82.000000, 482.000000)">
	<g id="编组_87_" transform="translate(4.500000, 3.000000)">
		<path id="形状结合_142_" class="st16" d="M1.5,30h18l7.5-7.5v-21C27,0.7,26.3,0,25.5,0h-24C0.7,0,0,0.7,0,1.5v27    C0,29.3,0.7,30,1.5,30z"/>
		<path id="矩形_97_" class="st17" d="M19.5,30l7.5-7.5h-6c-0.8,0-1.5,0.7-1.5,1.5V30z"/>
	</g>
	<g id="编组-3_16_" transform="translate(12.000000, 9.750000)">
		<path id="椭圆形_21_" class="st2" d="M9.7,10.2c0-2.7-2.2-4.9-4.9-4.9S0,7.5,0,10.2s2.2,4.9,4.9,4.9c0.8,0,1.6-0.2,2.2-0.5    s0.8-1,0.5-1.5c-0.3-0.6-1-0.8-1.5-0.5c-0.4,0.2-0.8,0.3-1.2,0.3c-1.4,0-2.6-1.2-2.6-2.6s1.2-2.6,2.6-2.6s2.6,1.2,2.6,2.6    c0,0.6,0.5,1.1,1.1,1.1C9.2,11.3,9.7,10.8,9.7,10.2z"/>
		<path id="直线-7_10_" class="st2" d="M9.7,9.1L7.5,0.8C7.3,0.2,6.7-0.1,6.1,0s-1,0.8-0.8,1.4l2.3,8.3c0.2,0.6,0.8,1,1.4,0.8    C9.5,10.4,9.9,9.7,9.7,9.1z"/>
		<path id="直线-8_10_" class="st2" d="M6,2.2l4.5,1.6c0.6,0.2,1.2-0.1,1.4-0.7s-0.1-1.2-0.7-1.4L6.7,0.1C6.2-0.1,5.5,0.2,5.3,0.8    S5.4,2,6,2.2z"/>
	</g>
</g>
<g id="_x32_-安卓文件" transform="translate(82.000000, 562.000000)">
	<g id="编组_88_" transform="translate(4.500000, 3.000000)">
		<path id="形状结合_143_" class="st43" d="M1.5,30h18l7.5-7.5v-21C27,0.7,26.3,0,25.5,0h-24C0.7,0,0,0.7,0,1.5v27    C0,29.3,0.7,30,1.5,30z"/>
		<path id="矩形_98_" class="st44" d="M19.5,30l7.5-7.5h-6c-0.8,0-1.5,0.7-1.5,1.5V30z"/>
	</g>
	<g id="编组-3_17_" transform="translate(10.500000, 12.750000)">
		<path id="椭圆形_22_" class="st2" d="M15,7.5c0-3.5-3.4-6.3-7.5-6.3S0,4,0,7.5"/>
		<g id="编组-2_33_" transform="translate(1.250000, 0.000000)">
			<path id="直线-10" class="st45" d="M9.4,4.4l2.5-3.8"/>
			<path id="直线-10_1_" class="st45" d="M3.1,4.4L0.6,0.6"/>
		</g>
		<path id="形状结合_144_" class="st43" d="M4.7,5.6c-0.5,0-0.9-0.4-0.9-0.9s0.4-0.9,0.9-0.9s0.9,0.4,0.9,0.9S5.2,5.6,4.7,5.6z     M10.3,5.6c-0.5,0-0.9-0.4-0.9-0.9s0.4-0.9,0.9-0.9s0.9,0.4,0.9,0.9S10.8,5.6,10.3,5.6z"/>
	</g>
</g>
<g id="_x32_-3" transform="translate(82.000000, 642.000000)">
	<g id="编组_89_" transform="translate(3.000000, 3.000000)">
		<path id="路径_11_" class="st35" d="M0,27V1.5C0,0.7,0.7,0,1.5,0h9.9c0.4,0,0.8,0.2,1.1,0.4l2.1,2.1c0.2,0.3,0.6,0.5,1,0.5h12.9    C29.3,3,30,3.7,30,4.5V27c0,0.8-0.7,1.5-1.5,1.5h-27C0.7,28.5,0,27.8,0,27z"/>
		<path id="矩形_99_" class="st23" d="M1.5,6h27C29.3,6,30,6.7,30,7.5V27c0,0.8-0.7,1.5-1.5,1.5h-27C0.7,28.5,0,27.8,0,27V7.5    C0,6.7,0.7,6,1.5,6z"/>
		<g id="编组-3_18_" transform="translate(4.500000, 7.500000)">
			<path id="形状结合_145_" class="st2" d="M13.3,9.7c-1.8,0-3.3-1.5-3.3-3.3S11.4,3,13.3,3s3.3,1.5,3.3,3.3S15.1,9.7,13.3,9.7z      M10,11h6.5c1.1,0,2,0.9,2,2v0.5c0,0.8-0.7,1.5-1.5,1.5H9.5C8.7,15,8,14.3,8,13.5V13C8,11.9,8.9,11,10,11z"/>
			<g id="编组-2_34_">
				<path id="形状_7_" class="st23" d="M5.7,11H5.5c-1.1,0-2,0.9-2,2v0.5C3.5,14.3,4.2,15,5,15h7.5c0.8,0,1.5-0.7,1.5-1.5V13      c0-1.1-0.9-2-2-2h-0.2c-0.9,0.6-1.9,0.9-3,0.9S6.6,11.6,5.7,11z M3.2,6.3c0-3.1,2.5-5.6,5.5-5.6s5.5,2.5,5.5,5.6      c0,1-0.3,1.9-0.7,2.7c1.6,0.6,2.7,2.2,2.7,3.9v0.5c0,2.1-1.7,3.8-3.8,3.8H5c-2.1,0-3.8-1.7-3.8-3.8V13c0-1.8,1.1-3.3,2.7-3.9      C3.5,8.2,3.2,7.3,3.2,6.3z M11,8.8c0.6-0.6,1-1.5,1-2.4C12,4.5,10.6,3,8.8,3S5.5,4.5,5.5,6.3c0,1,0.4,1.8,1,2.4L11,8.8L11,8.8z"/>
			</g>
			<path id="形状结合_146_" class="st2" d="M8.8,9.7C7,9.7,5.5,8.2,5.5,6.4S6.9,3,8.8,3S12,4.5,12,6.3S10.6,9.7,8.8,9.7z      M5.5,11H12c1.1,0,2,0.9,2,2v0.5c0,0.8-0.7,1.5-1.5,1.5H5c-0.8,0-1.5-0.7-1.5-1.5V13C3.5,11.9,4.4,11,5.5,11z"/>
		</g>
	</g>
</g>
<g id="_x32_-zip_5_" transform="translate(82.000000, 522.000000)">
	<g id="编组_90_" transform="translate(4.500000, 3.000000)">
		<path id="形状结合_147_" class="st22" d="M1.5,0h24C26.3,0,27,0.7,27,1.5v27c0,0.8-0.7,1.5-1.5,1.5h-24C0.7,30,0,29.3,0,28.5    v-27C0,0.7,0.7,0,1.5,0z"/>
		<path id="形状结合_148_" class="st2" d="M9,0h4.5v3H9V0z M9,6h4.5v3H9V6z M9,12h4.5v3H9V12z M13.5,3H18v3h-4.5V3z M13.5,9H18    v3h-4.5V9z"/>
		<path id="形状结合_149_" class="st23" d="M0,15h13.5v15h-12C0.7,30,0,29.3,0,28.5V15z"/>
		<path id="形状结合备份_5_" class="st0" d="M27,15H13.5v15h12c0.8,0,1.5-0.7,1.5-1.5V15z"/>
		<rect id="矩形_100_" y="15" class="st24" width="27" height="6"/>
		<path id="矩形_101_" class="st2" d="M9.8,13.5h7.5c1.2,0,2.3,1,2.3,2.3v4.5c0,1.2-1,2.3-2.3,2.3H9.8c-1.2,0-2.3-1-2.3-2.3v-4.5    C7.5,14.5,8.5,13.5,9.8,13.5z M10.5,16.5v3h6v-3H10.5z"/>
	</g>
</g>
<g id="_x32_-sketch" transform="translate(82.000000, 122.000000)">
	<g id="编组_91_" transform="translate(4.500000, 3.000000)">
		<path id="形状结合_150_" class="st11" d="M1.5,30h18l7.5-7.5v-21C27,0.7,26.3,0,25.5,0h-24C0.7,0,0,0.7,0,1.5v27    C0,29.3,0.7,30,1.5,30z"/>
		<path id="矩形_102_" class="st12" d="M19.5,30l7.5-7.5h-6c-0.8,0-1.5,0.7-1.5,1.5V30z"/>
	</g>
	<path id="形状结合_151_" class="st2" d="M18,21.7l5.3-7c0.4-0.5,1.1-0.6,1.6-0.2c0.5,0.4,0.6,1.1,0.2,1.6l-6.2,8   c-0.4,0.6-1.3,0.6-1.8,0l-6.2-8c-0.3-0.4-0.3-0.9,0-1.3l2.3-3.1c0.2-0.3,0.5-0.5,0.9-0.5H22c0.6,0,1.1,0.5,1.1,1.1   s-0.5,1.1-1.1,1.1h-7.3l-1.4,2L18,21.7z M16.4,16.9c-0.6,0-1.1-0.5-1.1-1.1s0.5-1.1,1.1-1.1H20c0.6,0,1.1,0.5,1.1,1.1   s-0.5,1.1-1.1,1.1H16.4z"/>
</g>
<g id="_x32_-exc_1_" transform="translate(202.000000, 82.000000)">
	<g id="编组_92_" transform="translate(4.500000, 3.000000)">
		<path id="形状结合_152_" class="st23" d="M1.5,30h18l7.5-7.5v-21C27,0.7,26.3,0,25.5,0h-24C0.7,0,0,0.7,0,1.5v27    C0,29.3,0.7,30,1.5,30z"/>
		<path id="矩形_103_" class="st35" d="M19.5,30l7.5-7.5h-6c-0.8,0-1.5,0.7-1.5,1.5V30z"/>
		<path id="路径-3_1_" class="st2" d="M18.8,9.8l-9,9c-0.4,0.4-1.2,0.4-1.6,0c-0.4-0.4-0.4-1.2,0-1.6l9-9c0.4-0.4,1.2-0.4,1.6,0    C19.2,8.6,19.2,9.4,18.8,9.8z"/>
		<path id="形状_8_" class="st2" d="M8.2,9.8c-0.4-0.4-0.4-1.2,0-1.6c0.4-0.4,1.2-0.4,1.6,0l4.5,4.5c0.4,0.4,0.4,1.2,0,1.6    s-1.2,0.4-1.6,0L8.2,9.8z M15,16.5c-0.4-0.4-0.4-1.2,0-1.6s1.2-0.4,1.6,0l2.3,2.2c0.4,0.4,0.4,1.2,0,1.6s-1.2,0.4-1.6,0L15,16.5z"/>
	</g>
</g>
<g id="_x32_-流程图">
	<g id="编组_93_" transform="translate(3.000000, 2.000000)">
		<path id="形状结合_155_" class="st14" d="M245,112.3h18l0,0l7.5-7.5v-21c0-0.8-0.7-1.5-1.5-1.5h-24c-0.8,0-1.5,0.7-1.5,1.5v27    C243.5,111.6,244.2,112.3,245,112.3z"/>
		<path id="矩形_105_" class="st15" d="M263,112.3l7.5-7.5h-6c-0.8,0-1.5,0.7-1.5,1.5V112.3L263,112.3z"/>
	</g>
	<g id="编组备份_1_" transform="translate(3.000000, 2.000000)">
		<path id="形状结合_154_" class="st14" d="M245,112.3h18l0,0l7.5-7.5v-21c0-0.8-0.7-1.5-1.5-1.5h-24c-0.8,0-1.5,0.7-1.5,1.5v27    C243.5,111.6,244.2,112.3,245,112.3z"/>
		<path id="矩形_104_" class="st15" d="M263,112.3l7.5-7.5h-6c-0.8,0-1.5,0.7-1.5,1.5V112.3L263,112.3z"/>
	</g>
	<path id="形状结合_153_" class="st2" d="M263.9,93.3l3.8,2.3c0.2,0.1,0.2,0.5,0,0.6l-3.8,2.3c-0.1,0.1-0.3,0.1-0.4,0l-3-1.8h-2   v0.8c0,0.4-0.3,0.7-0.6,0.7h-0.1h-2.3v4.5h5l3-1.8c0.1-0.1,0.3-0.1,0.4,0l3.8,2.3c0.2,0.1,0.2,0.5,0,0.6l-3.8,2.2   c-0.1,0.1-0.3,0.1-0.4,0l-3-1.8h-5c-0.8,0-1.5-0.7-1.5-1.5v-4.5h-2.3c-0.4,0-0.7-0.3-0.7-0.6v-0.1v-3c0-0.4,0.3-0.8,0.8-0.8l0,0h6   c0.4,0,0.8,0.3,0.8,0.8l0,0v0.8h2l3-1.8C263.7,93.2,263.8,93.2,263.9,93.3z"/>
</g>
<g>
	<g>
		<path class="st30" d="M204.5,704c-3.9,0-7-3.1-7-7s3.1-7,7-7s7,3.1,7,7S208.4,704,204.5,704z M204.5,692c-2.8,0-5,2.2-5,5    s2.2,5,5,5s5-2.2,5-5S207.3,692,204.5,692z"/>
	</g>
	<g>
		<path class="st30" d="M211.5,730c-3.9,0-7-3.1-7-7s3.1-7,7-7s7,3.1,7,7S215.4,730,211.5,730z M211.5,718c-2.8,0-5,2.2-5,5    s2.2,5,5,5s5-2.2,5-5S214.3,718,211.5,718z"/>
	</g>
	<g>
		<path class="st30" d="M188.5,720c-3.9,0-7-3.1-7-7s3.1-7,7-7s7,3.1,7,7S192.4,720,188.5,720z M188.5,708c-2.8,0-5,2.2-5,5    s2.2,5,5,5s5-2.2,5-5S191.3,708,188.5,708z"/>
	</g>
	
		<rect x="190.7" y="703.8" transform="matrix(0.7071 -0.7071 0.7071 0.7071 -440.8286 345.3741)" class="st30" width="11.6" height="2"/>
	
		<rect x="192.9" y="716.8" transform="matrix(0.9062 0.4228 -0.4228 0.9062 322.2237 -17.1475)" class="st30" width="13.8" height="2"/>
</g>
<g id="我的-我的收藏" transform="translate(32.000000, 25.000000)">
	<path id="星形" class="st30" d="M48,668.1c0.5,0.5,2,2.6,3.9,10.7c0.2,0.9,1,1.5,1.9,1.5c0.1,0,0.1,0,0.2,0   c1.9-0.2,3.7-0.2,5.1-0.2c4.2,0,5.5,0.6,5.8,0.8c-0.2,0.5-1.3,2.6-8.6,7.3c-0.8,0.5-1.1,1.5-0.8,2.4c3,7.9,3,10.5,2.8,11.2   c-0.8-0.1-3.2-1-9.1-6.2c-0.4-0.3-0.8-0.5-1.3-0.5c-0.5,0-1,0.2-1.3,0.5c-6,5.3-8.3,6.1-9.1,6.2c-0.2-0.6-0.3-3.2,2.9-11.2   c0.3-0.9,0-1.9-0.8-2.4c-7.2-4.7-8.4-6.8-8.6-7.3c0.3-0.2,1.3-0.6,4-0.8c0.8,0,1.6-0.1,2.4-0.1c1.5,0,3,0.1,4.5,0.2   c0.1,0,0.1,0,0.2,0c0.9,0,1.7-0.6,1.9-1.5C46,670.8,47.5,668.7,48,668.1 M48,666c-1.9,0-3.9,4.1-5.8,12.4c-1.6-0.2-3.2-0.2-4.7-0.2   c-0.8,0-1.7,0-2.5,0.1c-3.5,0.2-5.5,0.9-5.9,2.1c-0.6,1.9,2.6,5.1,9.5,9.7c-3.1,7.9-3.8,12.4-2.2,13.6c0.3,0.2,0.7,0.3,1.1,0.3   c2,0,5.5-2.3,10.6-6.8c5.1,4.5,8.7,6.7,10.7,6.7c0.4,0,0.8-0.1,1-0.3c1.5-1.2,0.8-5.7-2.2-13.6c6.9-4.5,10.1-7.7,9.5-9.7   c-0.5-1.5-3.1-2.2-7.8-2.2c-1.5,0-3.3,0.1-5.3,0.2C51.9,670.1,49.9,666,48,666L48,666z"/>
</g>
<g>
	<g>
		<path class="st30" d="M260,690.6c3.9,0,7,3.1,7,7s-3.1,7-7,7s-7-3.1-7-7S256.1,690.6,260,690.6z M260,702.6c2.8,0,5-2.2,5-5    s-2.2-5-5-5s-5,2.2-5,5S257.2,702.6,260,702.6z"/>
	</g>
	<g>
		<path class="st30" d="M246.5,712.3c3.9,0,7,3.1,7,7s-3.1,7-7,7s-7-3.1-7-7S242.6,712.3,246.5,712.3z M246.5,724.3c2.8,0,5-2.2,5-5    s-2.2-5-5-5s-5,2.2-5,5S243.7,724.3,246.5,724.3z"/>
	</g>
	<g>
		<path class="st30" d="M273.5,712.3c3.9,0,7,3.1,7,7s-3.1,7-7,7s-7-3.1-7-7S269.6,712.3,273.5,712.3z M273.5,724.3c2.8,0,5-2.2,5-5    s-2.2-5-5-5s-5,2.2-5,5S270.7,724.3,273.5,724.3z"/>
	</g>
	<g>
		<path class="st30" d="M264.9,700.3c5.3,2,9.1,7.1,9.1,13.1c0,0.1,0,0.2,0,0.2c0.7,0.1,1.4,0.4,2,0.7c0-0.3,0-0.6,0-1    c0-6.8-4.3-12.7-10.4-15C265.5,699.1,265.2,699.7,264.9,700.3z"/>
		<path class="st30" d="M269.4,723.7c-2.5,2.3-5.8,3.7-9.4,3.7c-3.9,0-7.4-1.6-9.9-4.1c-0.5,0.5-1,0.9-1.6,1.2c2.9,3,7,4.9,11.5,4.9    c4.4,0,8.4-1.8,11.3-4.6C270.6,724.5,269.9,724.2,269.4,723.7z"/>
		<path class="st30" d="M246,713.5C246,713.5,246,713.5,246,713.5c0,0,0-0.1,0-0.1c0-6,3.8-11.1,9.1-13.1c-0.3-0.6-0.6-1.2-0.7-1.9    c-6,2.3-10.4,8.1-10.4,15c0,0.2,0,0.3,0,0.5C244.6,713.7,245.3,713.5,246,713.5z"/>
	</g>
</g>
<path class="st30" d="M42,704.1c0-3.7-2-6.9-5-8.7c-0.3-3.1-2.8-5.5-6-5.5H9c-3.3,0-6,2.7-6,6v28c0,3.3,2.7,6,6,6h22  c3.3,0,6-2.7,6-6v-9.5C39.4,711.2,42,707,42,704.1z M40,704.1c0,3.4-5.2,10.2-8,13.5c-2.8-3.2-8-10.1-8-13.5c0-4.4,3.6-8,8-8  S40,699.7,40,704.1z M35,724c0,2.2-1.8,4-4,4H9c-2.2,0-4-1.8-4-4v-28c0-2.2,1.8-4,4-4h22c1.7,0,3.1,1,3.7,2.5  c-0.9-0.2-1.8-0.4-2.7-0.4c-5.5,0-10,4.5-10,10c0,5.2,8.3,14.6,9.3,15.7l0.7,0.8l0.7-0.8c0.3-0.3,1.1-1.3,2.3-2.7V724z"/>
</svg>
